<svg width="600" height="150" viewBox="0 0 600 150" xmlns="http://www.w3.org/2000/svg">
  <defs>
    <filter id="shadow2" x="-2%" y="-2%" width="104%" height="108%">
      <feDropShadow dx="0" dy="2" stdDeviation="3" flood-opacity="0.1" />
    </filter>
    <linearGradient id="fillGrad" x1="0" y1="0" x2="0" y2="1">
      <stop offset="0%" stop-color="#0366d6" stop-opacity="0.3"/>
      <stop offset="100%" stop-color="#0366d6" stop-opacity="0.02"/>
    </linearGradient>
  </defs>
  <rect width="600" height="150" rx="12" fill="#ffffff" filter="url(#shadow2)" stroke="#e1e4e8" stroke-width="1"/>
  <text x="20" y="24" fill="#2b3137" font-family="-apple-system,BlinkMacSystemFont,'Segoe UI',Helvetica,Arial,sans-serif" font-size="14" font-weight="600">📈 Download Growth (Current: 12.8k)</text>

  <!-- Area under the line -->
  <polygon fill="url(#fillGrad)" points="30.0,48.9,120 30.0,48.9 61.8,48.0 93.5,45.5 125.3,41.4 157.1,39.1 188.8,38.8 220.6,36.3 252.4,35.1 284.1,33.8 315.9,33.3 347.6,32.6 379.4,31.5 411.2,30.0 442.9,120.0 474.7,115.5 506.5,113.4 538.2,111.2 570.0,108.9 570.0,108.9,120" />

  <!-- Main line -->
  <polyline fill="none" stroke="#0366d6" stroke-width="2.5" stroke-linecap="round" stroke-linejoin="round" points="30.0,48.9 61.8,48.0 93.5,45.5 125.3,41.4 157.1,39.1 188.8,38.8 220.6,36.3 252.4,35.1 284.1,33.8 315.9,33.3 347.6,32.6 379.4,31.5 411.2,30.0 442.9,120.0 474.7,115.5 506.5,113.4 538.2,111.2 570.0,108.9" />

  <!-- Bright endpoint dot -->
  <circle cx="570.0" cy="108.9" r="4" fill="#ffffff" stroke="#0366d6" stroke-width="2.5" />
</svg>