<svg width="600" height="150" viewBox="0 0 600 150" xmlns="http://www.w3.org/2000/svg">
  <defs>
    <filter id="shadow2" x="-2%" y="-2%" width="104%" height="108%">
      <feDropShadow dx="0" dy="2" stdDeviation="3" flood-opacity="0.1" />
    </filter>
    <linearGradient id="fillGrad" x1="0" y1="0" x2="0" y2="1">
      <stop offset="0%" stop-color="#0366d6" stop-opacity="0.3"/>
      <stop offset="100%" stop-color="#0366d6" stop-opacity="0.02"/>
    </linearGradient>
  </defs>
  <rect width="600" height="150" rx="12" fill="#ffffff" filter="url(#shadow2)" stroke="#e1e4e8" stroke-width="1"/>
  <text x="20" y="24" fill="#2b3137" font-family="-apple-system,BlinkMacSystemFont,'Segoe UI',Helvetica,Arial,sans-serif" font-size="14" font-weight="600">📈 Download Growth (Current: 12.8k)</text>

  <!-- Area under the line -->
  <polygon fill="url(#fillGrad)" points="30.0,48.9,120 30.0,48.9 43.5,48.0 57.0,45.5 70.5,41.4 84.0,39.1 97.5,38.8 111.0,36.3 124.5,35.1 138.0,33.8 151.5,33.3 165.0,32.6 178.5,31.5 192.0,30.0 205.5,120.0 219.0,115.5 232.5,113.4 246.0,111.2 259.5,108.9 273.0,107.8 286.5,106.6 300.0,106.2 313.5,105.7 327.0,103.4 340.5,101.4 354.0,100.5 367.5,99.7 381.0,99.3 394.5,99.2 408.0,98.5 421.5,96.7 435.0,96.1 448.5,94.8 462.0,94.1 475.5,93.9 489.0,93.4 502.5,92.2 516.0,91.6 529.5,91.1 543.0,90.5 556.5,90.1 570.0,90.0 570.0,90.0,120" />

  <!-- Main line -->
  <polyline fill="none" stroke="#0366d6" stroke-width="2.5" stroke-linecap="round" stroke-linejoin="round" points="30.0,48.9 43.5,48.0 57.0,45.5 70.5,41.4 84.0,39.1 97.5,38.8 111.0,36.3 124.5,35.1 138.0,33.8 151.5,33.3 165.0,32.6 178.5,31.5 192.0,30.0 205.5,120.0 219.0,115.5 232.5,113.4 246.0,111.2 259.5,108.9 273.0,107.8 286.5,106.6 300.0,106.2 313.5,105.7 327.0,103.4 340.5,101.4 354.0,100.5 367.5,99.7 381.0,99.3 394.5,99.2 408.0,98.5 421.5,96.7 435.0,96.1 448.5,94.8 462.0,94.1 475.5,93.9 489.0,93.4 502.5,92.2 516.0,91.6 529.5,91.1 543.0,90.5 556.5,90.1 570.0,90.0" />

  <!-- Bright endpoint dot -->
  <circle cx="570.0" cy="90.0" r="4" fill="#ffffff" stroke="#0366d6" stroke-width="2.5" />
</svg>