<?xml version="1.0" encoding="UTF-8" standalone="no"?>
<!-- Created with Inkscape (http://www.inkscape.org/) -->

<svg
   width="640"
   height="320"
   viewBox="0 0 640 320"
   version="1.1"
   id="svg1"
   inkscape:version="1.3.2 (091e20e, 2023-11-25, custom)"
   sodipodi:docname="ic_banner2.svg"
   inkscape:export-filename="ic_banner2.png"
   inkscape:export-xdpi="162"
   inkscape:export-ydpi="162"
   xmlns:inkscape="http://www.inkscape.org/namespaces/inkscape"
   xmlns:sodipodi="http://sodipodi.sourceforge.net/DTD/sodipodi-0.dtd"
   xmlns:xlink="http://www.w3.org/1999/xlink"
   xmlns="http://www.w3.org/2000/svg"
   xmlns:svg="http://www.w3.org/2000/svg">
  <sodipodi:namedview
     id="namedview1"
     pagecolor="#505050"
     bordercolor="#eeeeee"
     borderopacity="1"
     inkscape:showpageshadow="0"
     inkscape:pageopacity="0"
     inkscape:pagecheckerboard="0"
     inkscape:deskcolor="#505050"
     inkscape:document-units="mm"
     inkscape:zoom="2.0000001"
     inkscape:cx="173.49999"
     inkscape:cy="177.24999"
     inkscape:window-width="2560"
     inkscape:window-height="1369"
     inkscape:window-x="1432"
     inkscape:window-y="-8"
     inkscape:window-maximized="1"
     inkscape:current-layer="layer1" />
  <defs
     id="defs1">
    <inkscape:path-effect
       effect="fillet_chamfer"
       id="path-effect20"
       is_visible="true"
       lpeversion="1"
       nodesatellites_param="F,0,1,1,0,29.571221,0,1 @ F,0,0,1,0,0,0,1 @ F,0,0,1,0,14.431593,0,1 @ F,0,0,1,0,14.431593,0,1 @ F,0,0,1,0,14.431593,0,1 @ F,0,0,1,0,0,0,1 | F,0,0,1,0,0,0,1 @ F,0,0,1,0,14.431593,0,1 @ F,0,0,1,0,14.431593,0,1 @ F,0,0,1,0,14.431593,0,1 @ F,0,0,1,0,0,0,1 @ F,0,1,1,0,29.571221,0,1 | F,0,0,1,0,14.431593,0,1 @ F,0,0,1,0,14.431593,0,1 @ F,0,0,1,0,14.431593,0,1 @ F,0,0,1,0,0,0,1 @ F,0,1,1,0,29.571221,0,1 @ F,0,0,1,0,0,0,1 | F,0,0,1,0,0,0,1 @ F,0,0,1,0,29.571221,0,1 @ F,0,0,1,0,0,0,1 @ F,0,0,1,0,14.431593,0,1"
       radius="0"
       unit="px"
       method="auto"
       mode="F"
       chamfer_steps="1"
       flexible="false"
       use_knot_distance="true"
       apply_no_radius="true"
       apply_with_radius="true"
       only_selected="false"
       hide_knots="false" />
    <linearGradient
       id="linearGradient18"
       inkscape:collect="always">
      <stop
         style="stop-color:#442178;stop-opacity:1"
         offset="0"
         id="stop19" />
      <stop
         style="stop-color:#2c2ca0;stop-opacity:1"
         offset="1"
         id="stop20" />
    </linearGradient>
    <linearGradient
       id="linearGradient60"
       inkscape:collect="always">
      <stop
         style="stop-color:#5a2ca0;stop-opacity:1"
         offset="0"
         id="stop60" />
      <stop
         style="stop-color:#2c2ca0;stop-opacity:1"
         offset="1"
         id="stop61" />
    </linearGradient>
    <inkscape:path-effect
       effect="fillet_chamfer"
       id="path-effect44"
       is_visible="true"
       lpeversion="1"
       nodesatellites_param="F,0,1,1,0,1.4103073,0,1 @ F,0,1,1,0,1.4103073,0,1 @ F,0,1,1,0,1.4103073,0,1 @ F,0,1,1,0,1.4103073,0,1 | F,0,1,1,0,1.4103073,0,1 @ F,0,1,1,0,1.4103073,0,1 @ F,0,1,1,0,1.4103073,0,1 @ F,0,1,1,0,1.4103073,0,1 | F,0,1,1,0,1.4103073,0,1 @ F,0,1,1,0,1.4103073,0,1 @ F,0,1,1,0,1.4103073,0,1 @ F,0,1,1,0,1.4103073,0,1 | F,0,1,1,0,1.4103073,0,1 @ F,0,1,1,0,1.4103073,0,1 @ F,0,0,1,0,1.4103073,0,1 @ F,0,1,1,0,1.4103073,0,1"
       radius="0"
       unit="px"
       method="auto"
       mode="F"
       chamfer_steps="1"
       flexible="false"
       use_knot_distance="true"
       apply_no_radius="true"
       apply_with_radius="true"
       only_selected="false"
       hide_knots="false" />
    <linearGradient
       id="linearGradient17"
       inkscape:collect="always">
      <stop
         style="stop-color:#5a2ca0;stop-opacity:1"
         offset="0"
         id="stop17" />
      <stop
         style="stop-color:#2c2ca0;stop-opacity:1"
         offset="1"
         id="stop18" />
    </linearGradient>
    <inkscape:path-effect
       effect="fillet_chamfer"
       id="path-effect17"
       is_visible="true"
       lpeversion="1"
       nodesatellites_param="F,0,1,1,0,2.64742,0,1 @ F,0,1,1,0,2.64742,0,1 @ F,0,0,1,0,0,0,1 @ F,0,1,1,0,2.64742,0,1 @ F,0,0,1,0,2.64742,0,1 @ F,0,0,1,0,0,0,1"
       radius="0"
       unit="px"
       method="auto"
       mode="F"
       chamfer_steps="1"
       flexible="false"
       use_knot_distance="true"
       apply_no_radius="true"
       apply_with_radius="true"
       only_selected="false"
       hide_knots="false" />
    <inkscape:path-effect
       effect="fillet_chamfer"
       id="path-effect16"
       is_visible="true"
       lpeversion="1"
       nodesatellites_param="F,0,1,1,0,2.7132989,0,1 @ F,0,1,1,0,2.7132989,0,1 @ F,0,0,1,0,0,0,1 @ F,0,1,1,0,2.7132989,0,1 @ F,0,0,1,0,2.7132989,0,1 @ F,0,0,1,0,0,0,1"
       radius="0"
       unit="px"
       method="auto"
       mode="F"
       chamfer_steps="1"
       flexible="false"
       use_knot_distance="true"
       apply_no_radius="true"
       apply_with_radius="true"
       only_selected="false"
       hide_knots="false" />
    <inkscape:path-effect
       effect="fillet_chamfer"
       id="path-effect7"
       is_visible="true"
       lpeversion="1"
       nodesatellites_param="F,0,1,1,0,1.8717859,0,1 @ F,0,1,1,0,1.8717859,0,1 @ F,0,0,1,0,0,0,1 @ F,0,1,1,0,1.8717859,0,1 @ F,0,0,1,0,1.8717859,0,1 @ F,0,0,1,0,0,0,1"
       radius="0"
       unit="px"
       method="auto"
       mode="F"
       chamfer_steps="1"
       flexible="false"
       use_knot_distance="true"
       apply_no_radius="true"
       apply_with_radius="true"
       only_selected="false"
       hide_knots="false" />
    <inkscape:path-effect
       effect="fillet_chamfer"
       id="path-effect3"
       is_visible="true"
       lpeversion="1"
       nodesatellites_param="F,0,1,1,0,11.39571,0,1 @ F,0,1,1,0,11.39571,0,1 @ F,0,0,1,0,0,0,1 @ F,0,0,1,0,11.39571,0,1 @ F,0,1,1,0,11.39571,0,1 @ F,0,0,1,0,0,0,1"
       radius="0"
       unit="px"
       method="auto"
       mode="F"
       chamfer_steps="1"
       flexible="false"
       use_knot_distance="true"
       apply_no_radius="true"
       apply_with_radius="true"
       only_selected="false"
       hide_knots="false" />
    <linearGradient
       inkscape:collect="always"
       xlink:href="#linearGradient17"
       id="linearGradient19"
       gradientUnits="userSpaceOnUse"
       x1="76.956619"
       y1="94.15416"
       x2="151.37251"
       y2="185.79549"
       gradientTransform="matrix(0.8983534,0,0,0.8983534,95.375858,70.164655)" />
    <linearGradient
       inkscape:collect="always"
       xlink:href="#linearGradient60"
       id="linearGradient61"
       x1="81.908585"
       y1="93.125"
       x2="143.09142"
       y2="177.875"
       gradientUnits="userSpaceOnUse"
       gradientTransform="matrix(0.8983534,0,0,0.8983534,95.375858,70.164655)" />
    <linearGradient
       inkscape:collect="always"
       xlink:href="#linearGradient18"
       id="linearGradient20"
       x1="84.49926"
       y1="0"
       x2="595.03033"
       y2="335.87573"
       gradientUnits="userSpaceOnUse" />
  </defs>
  <g
     inkscape:label="Calque 1"
     inkscape:groupmode="layer"
     id="layer1">
    <path
       d="m 155.91211,16.263672 -21.21289,23.21875 a 21.384442,21.384442 0 0 1 -21.27344,6.24414 L 87.728516,38.904297 a 16.199045,16.199045 0 0 0 -18.521485,8.171875 l -4.636719,8.896484 A 54.379986,54.379986 0 0 1 48.044922,75.027344 L 32.527344,86.160156 V 241.52734 l 35.841797,7.79688 a 31.360021,31.360021 0 0 1 19.693359,13.6543 l 26.27148,40.75781 h 299.24805 l 37.0332,-20.63867 a 40.75527,40.75527 0 0 1 24.21485,-4.91993 l 53.27539,5.75196 a 16.311925,16.311925 0 0 0 17.1543,-10.85157 l 29.65039,-85.11328 a 14.921591,14.921591 0 0 1 16.98437,-9.73047 l 15.57813,3.07813 V 81.160156 L 590.71289,69.488281 A 26.07824,26.07824 0 0 0 567.74414,66.089844 L 537.1543,76.037109 A 20.472649,20.472649 0 0 1 515.92969,70.615234 L 496.4375,49.951172 A 52.53375,52.53375 0 0 0 475.28125,36.308594 L 416.89648,16.263672 Z"
       style="fill:#1a1a1a;stroke-width:1.79615"
       id="path2" />
    <path
       d="M 114.33398,303.73633 88.0625,262.97852 a 31.360021,31.360021 0 0 0 -19.693359,-13.6543 l -35.841797,-7.79688 v 35.64453 a 26.565407,26.565407 0 0 0 26.564453,26.56446 z"
       style="fill:url(#linearGradient20);stroke-width:1.99937"
       id="path5" />
    <path
       d="m 607.47266,181.3125 -15.57813,-3.07813 a 14.921591,14.921591 0 0 0 -16.98437,9.73047 l -29.65039,85.11328 a 16.311925,16.311925 0 0 1 -17.1543,10.85157 l -53.27539,-5.75196 a 40.75527,40.75527 0 0 0 -24.21485,4.91993 l -37.0332,20.63867 H 580.9082 a 26.565407,26.565407 0 0 0 26.56446,-26.56446 z"
       style="fill:url(#linearGradient20);stroke-width:1.99937"
       id="path4" />
    <path
       d="m 416.89648,16.263672 58.38477,20.044922 a 52.53375,52.53375 0 0 1 21.15625,13.642578 l 19.49219,20.664062 a 20.472649,20.472649 0 0 0 21.22461,5.421875 l 30.58984,-9.947265 a 26.07824,26.07824 0 0 1 22.96875,3.398437 l 16.75977,11.671875 V 42.828125 A 26.565407,26.565407 0 0 0 580.9082,16.263672 Z"
       style="fill:url(#linearGradient20);stroke-width:1.99937"
       id="path3" />
    <path
       d="M 59.091797,16.263672 A 26.565407,26.565407 0 0 0 32.527344,42.828125 V 86.160156 L 48.044922,75.027344 a 54.379986,54.379986 0 0 0 16.52539,-19.054688 l 4.636719,-8.896484 a 16.199045,16.199045 0 0 1 18.521485,-8.171875 l 25.697264,6.822265 a 21.384442,21.384442 0 0 0 21.27344,-6.24414 l 21.21289,-23.21875 z"
       style="fill:url(#linearGradient20);stroke-width:1.99937"
       id="path1" />
    <path
       d="M 185.21119,70.164655 A 89.83534,89.83534 0 0 0 95.375858,160 89.83534,89.83534 0 0 0 185.21119,249.83534 89.83534,89.83534 0 0 0 275.04653,160 89.83534,89.83534 0 0 0 185.21119,70.164655 Z m 0,17.967069 A 71.868272,71.868272 0 0 1 257.07946,160 71.868272,71.868272 0 0 1 185.21119,231.86827 71.868272,71.868272 0 0 1 113.34293,160 71.868272,71.868272 0 0 1 185.21119,88.131724 Z"
       style="fill:url(#linearGradient19);stroke-width:8.38451"
       id="path61" />
    <circle
       style="fill:#1f1c24;stroke:none;stroke-width:3.73489;stroke-dasharray:none;paint-order:stroke fill markers"
       id="path1-8"
       cx="185.21118"
       cy="160"
       r="71.868271" />
    <path
       d="m 180.73031,128.74369 -14.11701,18.42535 -12.60851,3.37844 c -5.35261,1.43438 -8.50799,7.01421 -7.04745,12.46241 l 4.5028,16.80468 c 1.45925,5.44855 6.98179,8.70315 12.33448,7.26905 l 12.60851,-3.37844 21.4379,8.89659 c 3.83498,1.59193 7.77159,-1.93795 6.68458,-5.99391 l -15.00933,-56.01557 c -1.10554,-4.12551 -6.3316,-5.05083 -8.78597,-1.8486 z m 23.3319,5.27422 c 14.42189,8.98217 19.32119,27.38746 11.34391,42.32928 -1.57007,2.94076 2.55517,5.42806 4.02005,2.77463 7.41301,-13.42757 7.12141,-36.37292 -13.31012,-49.44538 -2.08481,-1.38727 -5.10576,1.76593 -2.05384,4.34147 z m -2.23563,11.28713 c 5.57559,5.07835 9.06044,12.64245 5.99187,22.20726 -1.00331,3.1273 3.35042,4.80544 4.32975,2.00621 1.83657,-5.24963 4.26211,-17.49882 -7.61201,-28.06539 -2.16926,-1.93033 -5.19359,1.58945 -2.70961,3.85192 z"
       style="fill:#f2f2f2;stroke:url(#linearGradient61);stroke-width:13.4761;stroke-dasharray:none;paint-order:stroke fill markers"
       id="path24"
       sodipodi:nodetypes="cccccccccccssssssscss" />
    <text
       xml:space="preserve"
       style="font-style:normal;font-variant:normal;font-weight:normal;font-stretch:normal;font-size:67.5664px;font-family:Rubik;-inkscape-font-specification:Rubik;fill:#ffffff;stroke-width:3.16617"
       x="256.45157"
       y="152.93515"
       id="text3"><tspan
         sodipodi:role="line"
         id="tspan3"
         x="256.45157"
         y="152.93515"
         style="stroke-width:3.16617">N-Zik</tspan></text>
    <text
       xml:space="preserve"
       style="font-style:normal;font-variant:normal;font-weight:normal;font-stretch:normal;font-size:28.7473px;font-family:Rubik;-inkscape-font-specification:Rubik;text-align:start;text-anchor:start;fill:#ffffff;stroke-width:1.79614"
       x="266.72446"
       y="181.27299"
       id="text4"><tspan
         sodipodi:role="line"
         x="266.72446"
         y="181.27299"
         id="tspan5"
         style="font-size:28.7473px;stroke-width:1.79614">Your user friendly</tspan></text>
    <text
       xml:space="preserve"
       style="font-style:normal;font-variant:normal;font-weight:normal;font-stretch:normal;font-size:28.7473px;font-family:Rubik;-inkscape-font-specification:Rubik;text-align:start;text-anchor:start;fill:#ffffff;stroke-width:1.79614"
       x="253.99191"
       y="207.37555"
       id="text6"><tspan
         sodipodi:role="line"
         id="tspan6"
         x="253.99191"
         y="207.37555"
         style="stroke-width:1.79614">streaming music app</tspan></text>
    <rect
       style="fill:none;stroke-width:1.79614"
       id="rect6-6"
       width="574.94617"
       height="287.47308"
       x="32.526913"
       y="16.263456" />
  </g>
</svg>
