<?xml version="1.0" encoding="UTF-8" standalone="no"?>
<!-- Created with Inkscape (http://www.inkscape.org/) -->

<svg
   width="640"
   height="320"
   viewBox="0 0 640 320"
   version="1.1"
   id="svg1"
   inkscape:version="1.3.2 (091e20e, 2023-11-25, custom)"
   sodipodi:docname="ic_banner2.svg"
   xmlns:inkscape="http://www.inkscape.org/namespaces/inkscape"
   xmlns:sodipodi="http://sodipodi.sourceforge.net/DTD/sodipodi-0.dtd"
   xmlns:xlink="http://www.w3.org/1999/xlink"
   xmlns="http://www.w3.org/2000/svg"
   xmlns:svg="http://www.w3.org/2000/svg">
  <sodipodi:namedview
     id="namedview1"
     pagecolor="#505050"
     bordercolor="#eeeeee"
     borderopacity="1"
     inkscape:showpageshadow="0"
     inkscape:pageopacity="0"
     inkscape:pagecheckerboard="0"
     inkscape:deskcolor="#505050"
     inkscape:document-units="mm"
     inkscape:zoom="1.4142136"
     inkscape:cx="226.27417"
     inkscape:cy="267.63992"
     inkscape:window-width="2560"
     inkscape:window-height="1369"
     inkscape:window-x="1432"
     inkscape:window-y="-8"
     inkscape:window-maximized="1"
     inkscape:current-layer="layer1" />
  <defs
     id="defs1">
    <inkscape:path-effect
       effect="fillet_chamfer"
       id="path-effect20"
       is_visible="true"
       lpeversion="1"
       nodesatellites_param="F,0,1,1,0,29.571221,0,1 @ F,0,0,1,0,0,0,1 @ F,0,0,1,0,14.431593,0,1 @ F,0,0,1,0,14.431593,0,1 @ F,0,0,1,0,14.431593,0,1 @ F,0,0,1,0,0,0,1 | F,0,0,1,0,0,0,1 @ F,0,0,1,0,14.431593,0,1 @ F,0,0,1,0,14.431593,0,1 @ F,0,0,1,0,14.431593,0,1 @ F,0,0,1,0,0,0,1 @ F,0,1,1,0,29.571221,0,1 | F,0,0,1,0,14.431593,0,1 @ F,0,0,1,0,14.431593,0,1 @ F,0,0,1,0,14.431593,0,1 @ F,0,0,1,0,0,0,1 @ F,0,1,1,0,29.571221,0,1 @ F,0,0,1,0,0,0,1 | F,0,0,1,0,0,0,1 @ F,0,0,1,0,29.571221,0,1 @ F,0,0,1,0,0,0,1 @ F,0,0,1,0,14.431593,0,1"
       radius="0"
       unit="px"
       method="auto"
       mode="F"
       chamfer_steps="1"
       flexible="false"
       use_knot_distance="true"
       apply_no_radius="true"
       apply_with_radius="true"
       only_selected="false"
       hide_knots="false" />
    <linearGradient
       id="linearGradient18"
       inkscape:collect="always">
      <stop
         style="stop-color:#442178;stop-opacity:1"
         offset="0"
         id="stop19" />
      <stop
         style="stop-color:#2c2ca0;stop-opacity:1"
         offset="1"
         id="stop20" />
    </linearGradient>
    <linearGradient
       id="linearGradient60"
       inkscape:collect="always">
      <stop
         style="stop-color:#5a2ca0;stop-opacity:1"
         offset="0"
         id="stop60" />
      <stop
         style="stop-color:#2c2ca0;stop-opacity:1"
         offset="1"
         id="stop61" />
    </linearGradient>
    <inkscape:path-effect
       effect="fillet_chamfer"
       id="path-effect44"
       is_visible="true"
       lpeversion="1"
       nodesatellites_param="F,0,1,1,0,1.4103073,0,1 @ F,0,1,1,0,1.4103073,0,1 @ F,0,1,1,0,1.4103073,0,1 @ F,0,1,1,0,1.4103073,0,1 | F,0,1,1,0,1.4103073,0,1 @ F,0,1,1,0,1.4103073,0,1 @ F,0,1,1,0,1.4103073,0,1 @ F,0,1,1,0,1.4103073,0,1 | F,0,1,1,0,1.4103073,0,1 @ F,0,1,1,0,1.4103073,0,1 @ F,0,1,1,0,1.4103073,0,1 @ F,0,1,1,0,1.4103073,0,1 | F,0,1,1,0,1.4103073,0,1 @ F,0,1,1,0,1.4103073,0,1 @ F,0,0,1,0,1.4103073,0,1 @ F,0,1,1,0,1.4103073,0,1"
       radius="0"
       unit="px"
       method="auto"
       mode="F"
       chamfer_steps="1"
       flexible="false"
       use_knot_distance="true"
       apply_no_radius="true"
       apply_with_radius="true"
       only_selected="false"
       hide_knots="false" />
    <linearGradient
       id="linearGradient17"
       inkscape:collect="always">
      <stop
         style="stop-color:#5a2ca0;stop-opacity:1"
         offset="0"
         id="stop17" />
      <stop
         style="stop-color:#2c2ca0;stop-opacity:1"
         offset="1"
         id="stop18" />
    </linearGradient>
    <inkscape:path-effect
       effect="fillet_chamfer"
       id="path-effect17"
       is_visible="true"
       lpeversion="1"
       nodesatellites_param="F,0,1,1,0,2.64742,0,1 @ F,0,1,1,0,2.64742,0,1 @ F,0,0,1,0,0,0,1 @ F,0,1,1,0,2.64742,0,1 @ F,0,0,1,0,2.64742,0,1 @ F,0,0,1,0,0,0,1"
       radius="0"
       unit="px"
       method="auto"
       mode="F"
       chamfer_steps="1"
       flexible="false"
       use_knot_distance="true"
       apply_no_radius="true"
       apply_with_radius="true"
       only_selected="false"
       hide_knots="false" />
    <inkscape:path-effect
       effect="fillet_chamfer"
       id="path-effect16"
       is_visible="true"
       lpeversion="1"
       nodesatellites_param="F,0,1,1,0,2.7132989,0,1 @ F,0,1,1,0,2.7132989,0,1 @ F,0,0,1,0,0,0,1 @ F,0,1,1,0,2.7132989,0,1 @ F,0,0,1,0,2.7132989,0,1 @ F,0,0,1,0,0,0,1"
       radius="0"
       unit="px"
       method="auto"
       mode="F"
       chamfer_steps="1"
       flexible="false"
       use_knot_distance="true"
       apply_no_radius="true"
       apply_with_radius="true"
       only_selected="false"
       hide_knots="false" />
    <inkscape:path-effect
       effect="fillet_chamfer"
       id="path-effect7"
       is_visible="true"
       lpeversion="1"
       nodesatellites_param="F,0,1,1,0,1.8717859,0,1 @ F,0,1,1,0,1.8717859,0,1 @ F,0,0,1,0,0,0,1 @ F,0,1,1,0,1.8717859,0,1 @ F,0,0,1,0,1.8717859,0,1 @ F,0,0,1,0,0,0,1"
       radius="0"
       unit="px"
       method="auto"
       mode="F"
       chamfer_steps="1"
       flexible="false"
       use_knot_distance="true"
       apply_no_radius="true"
       apply_with_radius="true"
       only_selected="false"
       hide_knots="false" />
    <inkscape:path-effect
       effect="fillet_chamfer"
       id="path-effect3"
       is_visible="true"
       lpeversion="1"
       nodesatellites_param="F,0,1,1,0,11.39571,0,1 @ F,0,1,1,0,11.39571,0,1 @ F,0,0,1,0,0,0,1 @ F,0,0,1,0,11.39571,0,1 @ F,0,1,1,0,11.39571,0,1 @ F,0,0,1,0,0,0,1"
       radius="0"
       unit="px"
       method="auto"
       mode="F"
       chamfer_steps="1"
       flexible="false"
       use_knot_distance="true"
       apply_no_radius="true"
       apply_with_radius="true"
       only_selected="false"
       hide_knots="false" />
    <linearGradient
       inkscape:collect="always"
       xlink:href="#linearGradient17"
       id="linearGradient19"
       gradientUnits="userSpaceOnUse"
       x1="76.956619"
       y1="94.15416"
       x2="151.37251"
       y2="185.79549"
       gradientTransform="matrix(0.8983534,0,0,0.8983534,95.375858,70.164655)" />
    <linearGradient
       inkscape:collect="always"
       xlink:href="#linearGradient60"
       id="linearGradient61"
       x1="81.908585"
       y1="93.125"
       x2="143.09142"
       y2="177.875"
       gradientUnits="userSpaceOnUse"
       gradientTransform="matrix(0.8983534,0,0,0.8983534,95.375858,70.164655)" />
    <linearGradient
       inkscape:collect="always"
       xlink:href="#linearGradient18"
       id="linearGradient20"
       x1="84.49926"
       y1="0"
       x2="595.03033"
       y2="335.87573"
       gradientUnits="userSpaceOnUse" />
  </defs>
  <g
     inkscape:label="Calque 1"
     inkscape:groupmode="layer"
     id="layer1">
    <path
       d="M 0,29.571221 V 77.804687 L 17.273844,65.41238 A 60.532955,60.532955 130.93473 0 0 35.669403,44.201956 l 5.161194,-9.903912 a 18.031929,18.031929 156.19675 0 1 20.617801,-9.094929 l 28.603204,7.59377 A 23.804042,23.804042 163.64125 0 0 113.7339,25.845329 L 137.3457,0 H 29.571221 A 29.571221,29.571221 135 0 0 0,29.571221 Z M 427.85937,0 492.85049,22.31366 a 58.477822,58.477822 32.811963 0 1 23.55157,15.184913 l 21.69588,23.002854 a 22.789082,22.789082 14.330072 0 0 23.62618,6.035446 l 34.05176,-11.073746 a 29.028933,29.028933 8.4193511 0 1 25.56693,3.784219 L 640,72.240234 V 29.571221 A 29.571221,29.571221 45 0 0 610.42878,0 Z m 175.89306,191.12833 -33.00486,94.74334 a 18.157581,18.157581 147.6839 0 1 -19.0958,12.07937 l -59.30354,-6.40208 a 45.366634,45.366634 168.51508 0 0 -26.95432,5.47653 L 424.16992,320 H 610.42878 A 29.571221,29.571221 135 0 0 640,290.42878 V 183.72461 l -17.34218,-3.42693 a 16.609934,16.609934 150.19217 0 0 -18.90539,10.83065 z M 0,250.75195 v 39.67683 A 29.571221,29.571221 45 0 0 29.571221,320 H 91.0625 L 61.818648,274.63011 A 34.908334,34.908334 34.734695 0 0 39.898272,259.43208 Z"
       style="fill:url(#linearGradient20);fill-opacity:1;stroke-width:1.99937"
       id="path17"
       inkscape:path-effect="#path-effect20"
       inkscape:original-d="M 0,0 V 77.804687 L 29,57 47.5,21.5 104,36.5 137.3457,0 Z M 427.85937,0 506.5,27 548,71 609.5,51 640,72.240234 V 0 Z M 608.5,177.5 566,299.5 478,290 424.16992,320 H 640 V 183.72461 Z M 0,250.75195 V 320 H 91.0625 L 54,262.5 Z"
       transform="matrix(0.8983534,0,0,0.8983534,32.526912,16.263456)" />
    <path
       d="M 185.21119,70.164655 A 89.83534,89.83534 0 0 0 95.375858,160 89.83534,89.83534 0 0 0 185.21119,249.83534 89.83534,89.83534 0 0 0 275.04653,160 89.83534,89.83534 0 0 0 185.21119,70.164655 Z m 0,17.967069 A 71.868272,71.868272 0 0 1 257.07946,160 71.868272,71.868272 0 0 1 185.21119,231.86827 71.868272,71.868272 0 0 1 113.34293,160 71.868272,71.868272 0 0 1 185.21119,88.131724 Z"
       style="fill:url(#linearGradient19);stroke-width:8.38451"
       id="path61" />
    <circle
       style="fill:#1f1c24;stroke:none;stroke-width:3.73489;stroke-dasharray:none;paint-order:stroke fill markers"
       id="path1-8"
       cx="185.21118"
       cy="160"
       r="71.868271" />
    <path
       d="m 180.73031,128.74369 -14.11701,18.42535 -12.60851,3.37844 c -5.35261,1.43438 -8.50799,7.01421 -7.04745,12.46241 l 4.5028,16.80468 c 1.45925,5.44855 6.98179,8.70315 12.33448,7.26905 l 12.60851,-3.37844 21.4379,8.89659 c 3.83498,1.59193 7.77159,-1.93795 6.68458,-5.99391 l -15.00933,-56.01557 c -1.10554,-4.12551 -6.3316,-5.05083 -8.78597,-1.8486 z m 23.3319,5.27422 c 14.42189,8.98217 19.32119,27.38746 11.34391,42.32928 -1.57007,2.94076 2.55517,5.42806 4.02005,2.77463 7.41301,-13.42757 7.12141,-36.37292 -13.31012,-49.44538 -2.08481,-1.38727 -5.10576,1.76593 -2.05384,4.34147 z m -2.23563,11.28713 c 5.57559,5.07835 9.06044,12.64245 5.99187,22.20726 -1.00331,3.1273 3.35042,4.80544 4.32975,2.00621 1.83657,-5.24963 4.26211,-17.49882 -7.61201,-28.06539 -2.16926,-1.93033 -5.19359,1.58945 -2.70961,3.85192 z"
       style="fill:#f2f2f2;stroke:url(#linearGradient61);stroke-width:13.4761;stroke-dasharray:none;paint-order:stroke fill markers"
       id="path24"
       sodipodi:nodetypes="cccccccccccssssssscss" />
    <text
       xml:space="preserve"
       style="font-style:normal;font-variant:normal;font-weight:normal;font-stretch:normal;font-size:67.5664px;font-family:Rubik;-inkscape-font-specification:Rubik;fill:#ffffff;stroke-width:3.16617"
       x="256.45157"
       y="152.93515"
       id="text3"><tspan
         sodipodi:role="line"
         id="tspan3"
         x="256.45157"
         y="152.93515"
         style="stroke-width:3.16617">N-Zik</tspan></text>
    <text
       xml:space="preserve"
       style="font-style:normal;font-variant:normal;font-weight:normal;font-stretch:normal;font-size:28.7473px;font-family:Rubik;-inkscape-font-specification:Rubik;text-align:start;text-anchor:start;fill:#ffffff;stroke-width:1.79614"
       x="266.72446"
       y="181.27299"
       id="text4"><tspan
         sodipodi:role="line"
         x="266.72446"
         y="181.27299"
         id="tspan5"
         style="font-size:28.7473px;stroke-width:1.79614">Your user friendly</tspan></text>
    <text
       xml:space="preserve"
       style="font-style:normal;font-variant:normal;font-weight:normal;font-stretch:normal;font-size:28.7473px;font-family:Rubik;-inkscape-font-specification:Rubik;text-align:start;text-anchor:start;fill:#ffffff;stroke-width:1.79614"
       x="253.99191"
       y="207.37555"
       id="text6"><tspan
         sodipodi:role="line"
         id="tspan6"
         x="253.99191"
         y="207.37555"
         style="stroke-width:1.79614">streaming music app</tspan></text>
    <rect
       style="fill:none;stroke-width:1.79614"
       id="rect6-6"
       width="574.94617"
       height="287.47308"
       x="32.526913"
       y="16.263456" />
  </g>
</svg>
