<svg width="600" height="160" viewBox="0 0 600 160" xmlns="http://www.w3.org/2000/svg">
  <style>
    .bg { fill: #ffffff; stroke: #e1e4e8; }
    .text-title { fill: #2b3137; font-weight: 600; font-size: 15px; }
    .chart-line { stroke: #0366d6; fill: none; }
    .chart-dot { fill: #ffffff; stroke: #0366d6; }
    .grad-start { stop-color: #0366d6; stop-opacity: 0.4; }
    .grad-end { stop-color: #0366d6; stop-opacity: 0.0; }
    
    @media (prefers-color-scheme: dark) {
      .bg { fill: #0d1117; stroke: #30363d; }
      .text-title { fill: #c9d1d9; }
      .chart-line { stroke: #58a6ff; }
      .chart-dot { fill: #0d1117; stroke: #58a6ff; }
      .grad-start { stop-color: #58a6ff; stop-opacity: 0.3; }
      .grad-end { stop-color: #58a6ff; stop-opacity: 0.0; }
    }
    
    @keyframes pulse {
      0% { r: 4; stroke-width: 2.5; }
      50% { r: 5.5; stroke-width: 4; stroke-opacity: 0.6; }
      100% { r: 4; stroke-width: 2.5; }
    }
    .dot-pulse { animation: pulse 2s infinite; }
    @keyframes draw {
      from { stroke-dashoffset: 1000; }
      to { stroke-dashoffset: 0; }
    }
    .animated-line {
      stroke-dasharray: 1000;
      stroke-dashoffset: 1000;
      animation: draw 1.5s ease-out forwards;
    }
  </style>
  <defs>
    <filter id="shadow2" x="-5%" y="-5%" width="110%" height="110%">
      <feDropShadow dx="0" dy="4" stdDeviation="5" flood-opacity="0.05" />
    </filter>
    <linearGradient id="fillGrad" x1="0" y1="0" x2="0" y2="1">
      <stop offset="0%" class="grad-start"/>
      <stop offset="100%" class="grad-end"/>
    </linearGradient>
  </defs>
  <rect class="bg" width="600" height="160" rx="10" filter="url(#shadow2)" stroke-width="1"/>
  <g font-family="-apple-system,BlinkMacSystemFont,'Segoe UI',Helvetica,Arial,sans-serif">
    <text x="25" y="30" class="text-title">📈 Download Growth (Current: 22.6k)</text>
  </g>

  <!-- Area under the line -->
  <path fill="url(#fillGrad)" d="M 35.0,125.0 C 35.23618198806871,125.0 35.23618198806871,124.87511150758252 35.47236397613742,124.87511150758252 C 36.30661970818659,124.87511150758252 36.30661970818659,124.5272078501338 37.14087544023575,124.5272078501338 C 38.41702005318767,124.5272078501338 38.41702005318767,123.97413024085638 39.69316466613958,123.97413024085638 C 40.53884855890175,123.97413024085638 40.53884855890175,123.67082961641391 41.38453245166391,123.67082961641391 C 41.754042981384316,123.67082961641391 41.754042981384316,123.62622658340767 42.123553511104724,123.62622658340767 C 42.64163013009416,123.62622658340767 42.64163013009416,123.28724353256021 43.15970674908359,123.28724353256021 C 43.48350463595199,123.28724353256021 43.48350463595199,123.12667261373774 43.807302522820386,123.12667261373774 C 44.26442895134048,123.12667261373774 44.26442895134048,122.93933987511151 44.72155537986056,122.93933987511151 C 45.14820671314598,122.93933987511151 45.14820671314598,122.87689562890276 45.574858046431395,122.87689562890276 C 46.031984474951486,122.87689562890276 46.031984474951486,122.78768956289028 46.48911090347157,122.78768956289028 C 47.319557248616405,122.78768956289028 47.319557248616405,122.63603925066904 48.150003593761234,122.63603925066904 C 49.807086897146554,122.63603925066904 49.807086897146554,122.43086529884032 51.464170200531875,122.43086529884032 C 89.86279019621936,122.43086529884032 89.86279019621936,102.33273862622659 128.26141019190686,102.33273862622659 C 129.4842233881981,102.33273862622659 129.4842233881981,102.12756467439786 130.70703658448934,102.12756467439786 C 132.23841012003163,102.12756467439786 132.23841012003163,101.25334522747546 133.76978365557392,101.25334522747546 C 134.05929706030332,101.25334522747546 134.05929706030332,101.09277430865299 134.3488104650327,101.09277430865299 C 135.01164378638686,101.09277430865299 135.01164378638686,100.87867975022301 135.67447710774098,100.87867975022301 C 136.94300294688423,100.87867975022301 136.94300294688423,100.45049063336307 138.21152878602746,100.45049063336307 C 138.9543592323726,100.45049063336307 138.9543592323726,100.15611061552185 139.69718967871773,100.15611061552185 C 141.2666570833034,100.15611061552185 141.2666570833034,99.71008028545941 142.83612448788904,99.71008028545941 C 143.30848846402645,99.71008028545941 143.30848846402645,99.62087421944692 143.78085244016387,99.62087421944692 C 144.13893480917127,99.62087421944692 144.13893480917127,99.54058876003569 144.49701717817868,99.54058876003569 C 144.86271832099476,99.54058876003569 144.86271832099476,99.48706512042818 145.22841946381084,99.48706512042818 C 145.94458420182565,99.48706512042818 145.94458420182565,99.3443354148082 146.66074893984046,99.3443354148082 C 147.89879968374902,99.3443354148082 147.89879968374902,99.15700267618197 149.13685042765758,99.15700267618197 C 149.8530151656724,99.15700267618197 149.8530151656724,98.9964317573595 150.5691799036872,98.9964317573595 C 151.34629483217134,98.9964317573595 151.34629483217134,98.83586083853702 152.1234097606555,98.83586083853702 C 152.97290304032202,98.83586083853702 152.97290304032202,98.32738626226583 153.8223963199885,98.32738626226583 C 154.19571623661324,98.32738626226583 154.19571623661324,98.13113291703836 154.56903615323796,98.13113291703836 C 154.99187809961904,98.13113291703836 154.99187809961904,97.87243532560214 155.41472004600013,97.87243532560214 C 155.80708689714655,97.87243532560214 155.80708689714655,97.66726137377341 156.19945374829297,97.66726137377341 C 156.91561848630778,97.66726137377341 156.91561848630778,96.89116859946476 157.6317832243226,96.89116859946476 C 158.8736433551355,96.89116859946476 158.8736433551355,95.7850133809099 160.1155034859484,95.7850133809099 C 160.80119312872853,95.7850133809099 160.80119312872853,95.42818911685994 161.48688277150865,95.42818911685994 C 162.27923524761013,95.42818911685994 162.27923524761013,94.9821587867975 163.07158772371164,94.9821587867975 C 163.98964996765613,94.9821587867975 163.98964996765613,94.49152542372882 164.90771221160065,94.49152542372882 C 165.66578020556312,94.49152542372882 165.66578020556312,94.25958965209634 166.42384819952562,94.25958965209634 C 166.82764321138504,94.25958965209634 166.82764321138504,94.16146297948261 167.23143822324445,94.16146297948261 C 167.92093725292892,94.16146297948261 167.92093725292892,93.98305084745763 168.6104362826134,93.98305084745763 C 169.87896212175662,93.98305084745763 169.87896212175662,93.63514719000892 171.14748796089987,93.63514719000892 C 171.8407963774887,93.63514719000892 171.8407963774887,93.55486173059768 172.53410479407748,93.55486173059768 C 173.28455401423128,93.55486173059768 173.28455401423128,93.40321141837646 174.0350032343851,93.40321141837646 C 174.55688924027888,93.40321141837646 174.55688924027888,93.23371989295272 175.07877524617265,93.23371989295272 C 175.8025587579961,93.23371989295272 175.8025587579961,93.06422836752898 176.5263422698196,93.06422836752898 C 176.92632789477466,93.06422836752898 176.92632789477466,92.992863514719 177.32631351972972,92.992863514719 C 177.73010853158917,92.992863514719 177.73010853158917,92.93041926851026 178.13390354344858,92.93041926851026 C 178.83864012075037,92.93041926851026 178.83864012075037,92.82337198929527 179.54337669805219,92.82337198929527 C 180.62143319197872,92.82337198929527 180.62143319197872,92.76984834968778 181.6994896859053,92.76984834968778 C 182.42327319772875,92.76984834968778 182.42327319772875,92.65388046387154 183.14705670955223,92.65388046387154 C 183.46323582261198,92.65388046387154 183.46323582261198,92.62711864406779 183.7794149356717,92.62711864406779 C 184.18701933443543,92.62711864406779 184.18701933443543,92.55575379125781 184.59462373319917,92.55575379125781 C 185.0593689355279,92.55575379125781 185.0593689355279,92.48438893844781 185.52411413785669,92.48438893844781 C 185.93171853662045,92.48438893844781 185.93171853662045,92.39518287243533 186.3393229353842,92.39518287243533 C 186.8231150722346,92.39518287243533 186.8231150722346,92.34165923282784 187.30690720908504,92.34165923282784 C 187.71451160784878,92.34165923282784 187.71451160784878,92.02051739518288 188.12211600661252,92.02051739518288 C 188.59447998274993,92.02051739518288 188.59447998274993,91.6993755575379 189.06684395888738,91.6993755575379 C 189.83253072665855,91.6993755575379 189.83253072665855,91.3693131132917 190.5982174944297,91.3693131132917 C 191.8515057859556,91.3693131132917 191.8515057859556,90.74487065120428 193.1047940774815,90.74487065120428 C 193.70286782146195,90.74487065120428 193.70286782146195,90.45049063336307 194.30094156544237,90.45049063336307 C 194.95615611298786,90.45049063336307 194.95615611298786,90.1293487957181 195.61137066053334,90.1293487957181 C 196.06087831524474,90.1293487957181 196.06087831524474,89.92417484388938 196.51038596995616,89.92417484388938 C 196.91799036871993,89.92417484388938 196.91799036871993,89.72792149866191 197.32559476748366,89.72792149866191 C 197.79795874362108,89.72792149866191 197.79795874362108,89.4513826940232 198.2703227197585,89.4513826940232 C 198.68935527923526,89.4513826940232 198.68935527923526,88.94290811775201 199.108387838712,88.94290811775201 C 199.57313304104076,88.94290811775201 199.57313304104076,88.34522747546833 200.0378782433695,88.34522747546833 C 200.80356501114068,88.34522747546833 200.80356501114068,87.76538804638716 201.56925177891182,87.76538804638716 C 203.07395960612376,87.76538804638716 203.07395960612376,86.81088314005352 204.57866743333574,86.81088314005352 C 205.75576798677497,86.81088314005352 205.75576798677497,86.15967885816235 206.9328685402142,86.15967885816235 C 207.591892474664,86.15967885816235 207.591892474664,85.69580731489742 208.25091640911378,85.69580731489742 C 208.89851218285057,85.69580731489742 208.89851218285057,85.41926851025869 209.54610795658735,85.41926851025869 C 209.90799971249908,85.41926851025869 209.90799971249908,85.26761819803747 210.26989146841083,85.26761819803747 C 210.61273628980092,85.26761819803747 210.61273628980092,85.22301516503123 210.95558111119098,85.22301516503123 C 211.7288866527708,85.22301516503123 211.7288866527708,84.9464763603925 212.5021921943506,84.9464763603925 C 213.77071803349384,84.9464763603925 213.77071803349384,84.63425512934879 215.0392438726371,84.63425512934879 C 215.74778983684325,84.63425512934879 215.74778983684325,84.33095450490633 216.4563358010494,84.33095450490633 C 217.1610723783512,84.33095450490633 217.1610723783512,84.09901873327385 217.865808955653,84.09901873327385 C 218.4067418960684,84.09901873327385 218.4067418960684,83.82247992863515 218.94767483648386,83.82247992863515 C 219.690505282829,83.82247992863515 219.690505282829,83.58162355040142 220.43333572917416,83.58162355040142 C 220.85998706245957,83.58162355040142 220.85998706245957,83.4834968777877 221.28663839574497,83.4834968777877 C 221.67138647308272,83.4834968777877 221.67138647308272,83.4121320249777 222.05613455042047,83.4121320249777 C 222.78372744914827,83.4121320249777 222.78372744914827,83.32292595896521 223.51132034787608,83.32292595896521 C 224.83698699058434,83.32292595896521 224.83698699058434,83.0107047279215 226.1626536332926,83.0107047279215 C 227.17214116294113,83.0107047279215 227.17214116294113,82.77876895628903 228.18162869258967,82.77876895628903 C 229.05016890677783,82.77876895628903 229.05016890677783,82.60927743086529 229.91870912096599,82.60927743086529 C 230.65392079350246,82.60927743086529 230.65392079350246,82.43978590544157 231.38913246603894,82.43978590544157 C 231.80054625170703,82.43978590544157 231.80054625170703,82.36842105263159 232.21196003737512,82.36842105263159 C 232.61194566233019,82.36842105263159 232.61194566233019,82.27029438001784 233.01193128728528,82.27029438001784 C 233.71666786458707,82.27029438001784 233.71666786458707,82.13648528099911 234.42140444188885,82.13648528099911 C 235.54136419176308,82.13648528099911 235.54136419176308,82.00267618198038 236.6613239416373,82.00267618198038 C 237.44986703083447,82.00267618198038 237.44986703083447,81.8777876895629 238.23841012003163,81.8777876895629 C 238.92409976281175,81.8777876895629 238.92409976281175,81.66369313113292 239.6097894055919,81.66369313113292 C 240.18881621505068,81.66369313113292 240.18881621505068,81.56556645851919 240.76784302450943,81.56556645851919 C 241.17925681017752,81.56556645851919 241.17925681017752,81.49420160570918 241.5906705958456,81.49420160570918 C 241.89542154819236,81.49420160570918 241.89542154819236,81.4228367528992 242.20017250053908,81.4228367528992 C 242.60015812549415,81.4228367528992 242.60015812549415,81.3871543264942 243.0001437504492,81.3871543264942 C 243.47250772658663,81.3871543264942 243.47250772658663,81.30686886708295 243.94487170272407,81.30686886708295 C 244.6077050240782,81.30686886708295 244.6077050240782,80.92328278322927 245.27053834543233,80.92328278322927 C 246.15431610723783,80.92328278322927 246.15431610723783,80.42372881355932 247.03809386904334,80.42372881355932 C 247.7390210594408,80.42372881355932 247.7390210594408,80.05798394290812 248.4399482498383,80.05798394290812 C 249.1789693092791,80.05798394290812 249.1789693092791,79.59411239964317 249.9179903687199,79.59411239964317 C 250.39416373176167,79.59411239964317 250.39416373176167,79.32649420160571 250.87033709480343,79.32649420160571 C 251.57888305900957,79.32649420160571 251.57888305900957,78.96966993755575 252.2874290232157,78.96966993755575 C 252.70265219578812,78.96966993755575 252.70265219578812,78.83586083853703 253.11787536836053,78.83586083853703 C 253.54452670164594,78.83586083853703 253.54452670164594,78.74665477252452 253.97117803493134,78.74665477252452 C 254.4359232372601,78.74665477252452 254.4359232372601,78.35414808206959 254.90066843958888,78.35414808206959 C 255.56731114784736,78.35414808206959 255.56731114784736,77.90811775200714 256.2339538561058,77.90811775200714 C 257.09868468338965,77.90811775200714 257.09868468338965,77.39072256913471 257.9634155106735,77.39072256913471 C 258.5957737367929,77.39072256913471 258.5957737367929,77.078501338091 259.22813196291236,77.078501338091 C 259.8947746711708,77.078501338091 259.8947746711708,76.78412132024978 260.5614173794293,76.78412132024978 C 260.94235606986274,76.78412132024978 260.94235606986274,76.65923282783228 261.3232947602961,76.65923282783228 C 261.7842305757205,76.65923282783228 261.7842305757205,76.28456735057983 262.24516639114495,76.28456735057983 C 262.67943649823906,76.28456735057983 262.67943649823906,76.02586975914363 263.11370660533316,76.02586975914363 C 263.5784518076619,76.02586975914363 263.5784518076619,75.7671721677074 264.04319700999065,75.7671721677074 C 264.4584201825631,75.7671721677074 264.4584201825631,75.61552185548618 264.8736433551355,75.61552185548618 C 265.3421979443686,75.61552185548618 265.3421979443686,75.5084745762712 265.81075253360166,75.5084745762712 C 266.5307266585208,75.5084745762712 266.5307266585208,75.2943800178412 267.2507007834399,75.2943800178412 C 268.1649536404801,75.2943800178412 268.1649536404801,75.07136485280998 269.0792064975203,75.07136485280998 C 269.7039459498311,75.07136485280998 269.7039459498311,74.85727029438002 270.3286854021419,74.85727029438002 C 270.9534248544527,74.85727029438002 270.9534248544527,74.69669937555754 271.5781643067635,74.69669937555754 C 271.96291238410123,74.69669937555754 271.96291238410123,74.6164139161463 272.347660461439,74.6164139161463 C 272.8085962768634,74.6164139161463 272.8085962768634,74.50044603033007 273.2695320922878,74.50044603033007 C 273.6847552648602,74.50044603033007 273.6847552648602,74.38447814451382 274.0999784374326,74.38447814451382 C 274.57615180047435,74.38447814451382 274.57615180047435,74.24174843889384 275.0523251635161,74.24174843889384 C 275.45612017537553,74.24174843889384 275.45612017537553,74.18822479928636 275.85991518723495,74.18822479928636 C 276.3360885502767,74.18822479928636 276.3360885502767,74.06333630686888 276.8122619133185,74.06333630686888 C 277.54366419895064,74.06333630686888 277.54366419895064,73.90276538804639 278.2750664845828,73.90276538804639 C 279.6731114784734,73.90276538804639 279.6731114784734,73.67082961641391 281.071156472364,73.67082961641391 C 282.3206353769856,73.67082961641391 282.3206353769856,73.36752899197145 283.5701142816072,73.36752899197145 C 284.29770718033495,73.36752899197145 284.29770718033495,73.26048171275647 285.02530007906273,73.26048171275647 C 285.65384891827784,73.26048171275647 285.65384891827784,73.18019625334523 286.28239775749296,73.18019625334523 C 286.6900021562567,73.18019625334523 286.6900021562567,73.14451382694023 287.0976065550205,73.14451382694023 C 287.46330769783657,73.14451382694023 287.46330769783657,73.10883140053524 287.82900884065265,73.10883140053524 C 288.5185078703371,73.10883140053524 288.5185078703371,73.0463871543265 289.2080069000216,73.0463871543265 C 290.1413066915834,73.0463871543265 290.1413066915834,72.9393398751115 291.07460648314526,72.9393398751115 C 292.1488535901675,72.9393398751115 292.1488535901675,72.81445138269403 293.2231006971897,72.81445138269403 C 293.98497807805654,72.81445138269403 293.98497807805654,72.68956289027653 294.74685545892333,72.68956289027653 C 295.61158628620717,72.68956289027653 295.61158628620717,72.54683318465655 296.47631711349095,72.54683318465655 C 296.887730899159,72.54683318465655 296.887730899159,72.4665477252453 297.2991446848271,72.4665477252453 C 298.0305469704593,72.4665477252453 298.0305469704593,72.39518287243533 298.76194925609144,72.39518287243533 C 299.35621361316754,72.39518287243533 299.35621361316754,72.34165923282782 299.95047797024364,72.34165923282782 C 300.75425860705815,72.34165923282782 300.75425860705815,72.28813559322035 301.55803924387266,72.28813559322035 C 302.27420398188747,72.28813559322035 302.27420398188747,72.24353256021409 302.9903687199023,72.24353256021409 C 303.8093869043341,72.24353256021409 303.8093869043341,72.1543264942016 304.6284050887659,72.1543264942016 C 305.03220010062535,72.1543264942016 305.03220010062535,72.08296164139162 305.43599511248476,72.08296164139162 C 306.0074031481348,72.08296164139162 306.0074031481348,71.95807314897414 306.5788111837849,71.95807314897414 C 306.9026090706533,71.95807314897414 306.9026090706533,71.92239072256913 307.2264069575217,71.92239072256913 C 307.61877380866815,71.92239072256913 307.61877380866815,71.85102586975916 308.01114065981454,71.85102586975916 C 308.4301732192913,71.85102586975916 308.4301732192913,71.8064228367529 308.84920577876807,71.8064228367529 C 309.30633220728816,71.8064228367529 309.30633220728816,71.77966101694915 309.76345863580826,71.77966101694915 C 310.4262919571624,71.77966101694915 310.4262919571624,71.75289919714541 311.0891252785165,71.75289919714541 C 312.0224250700784,71.75289919714541 312.0224250700784,71.66369313113292 312.9557248616402,71.66369313113292 C 313.73283979012433,71.66369313113292 313.73283979012433,71.61909009812666 314.5099547186085,71.61909009812666 C 315.222310069719,71.61909009812666 315.222310069719,71.54772524531668 315.93466542082945,71.54772524531668 C 316.8374901171566,71.54772524531668 316.8374901171566,71.4049955396967 317.7403148134838,71.4049955396967 C 318.41838568245527,71.4049955396967 318.41838568245527,71.32471008028546 319.09645655142674,71.32471008028546 C 319.51929849780777,71.32471008028546 319.51929849780777,71.128456735058 319.94214044418885,71.128456735058 C 320.36498239056993,71.128456735058 320.36498239056993,70.71810883140054 320.7878243369511,70.71810883140054 C 321.4201825630705,70.71810883140054 321.4201825630705,70.42372881355932 322.05254078919,70.42372881355932 C 322.98584058075187,70.42372881355932 322.98584058075187,69.8349687778769 323.9191403723137,69.8349687778769 C 324.6276863365198,69.8349687778769 324.6276863365198,69.51382694023194 325.33623230072595,69.51382694023194 C 326.09810968159275,69.51382694023194 326.09810968159275,69.15700267618197 326.8599870624596,69.15700267618197 C 327.75138359807374,69.15700267618197 327.75138359807374,68.72881355932203 328.64278013368795,68.72881355932203 C 329.3322791633724,68.72881355932203 329.3322791633724,68.45227475468332 330.02177819305683,68.45227475468332 C 330.4217638180119,68.45227475468332 330.4217638180119,68.30954504906333 330.821749442967,68.30954504906333 C 331.2407820024438,68.30954504906333 331.2407820024438,68.22033898305085 331.6598145619205,68.22033898305085 C 332.2616976928052,68.22033898305085 332.2616976928052,67.7743086529884 332.86358082369003,67.7743086529884 C 333.64831452598287,67.7743086529884 333.64831452598287,67.29259589652096 334.4330482282757,67.29259589652096 C 335.0349313591605,67.29259589652096 335.0349313591605,66.96253345227476 335.6368144900453,66.96253345227476 C 336.03680011500035,66.96253345227476 336.03680011500035,66.74843889384478 336.43678573995544,66.74843889384478 C 336.80629626967584,66.74843889384478 336.80629626967584,66.54326494201607 337.17580679939624,66.54326494201607 C 337.62912384101196,66.54326494201607 337.62912384101196,66.31132917038359 338.08244088262774,66.31132917038359 C 338.50909221591314,66.31132917038359 338.50909221591314,66.05263157894737 338.93574354919855,66.05263157894737 C 339.38525120391,66.05263157894737 339.38525120391,65.71364852809991 339.83475885862146,65.71364852809991 C 340.2956946740459,65.71364852809991 340.2956946740459,65.4727921498662 340.7566304894703,65.4727921498662 C 341.19470998346867,65.4727921498662 341.19470998346867,65.16057091882249 341.6327894774671,65.16057091882249 C 342.0822971321785,65.16057091882249 342.0822971321785,64.75914362176628 342.53180478688995,64.75914362176628 C 343.1908287213397,64.75914362176628 343.1908287213397,64.39339875111509 343.8498526557895,64.39339875111509 C 344.710774096169,64.39339875111509 344.710774096169,63.84924174843889 345.57169553654853,63.84924174843889 C 346.1888162150507,63.84924174843889 346.1888162150507,63.56378233719892 346.80593689355277,63.56378233719892 C 347.21354129231656,63.56378233719892 347.21354129231656,63.421052631578945 347.6211456910803,63.421052631578945 C 347.925896643427,63.421052631578945 347.925896643427,63.28724353256021 348.2306475957737,63.28724353256021 C 348.64587076834613,63.28724353256021 348.64587076834613,63.11775200713649 349.06109394091857,63.11775200713649 C 349.4953640480127,63.11775200713649 349.4953640480127,62.992863514719 349.9296341551067,62.992863514719 C 350.37533242291386,62.992863514719 350.37533242291386,62.76984834968778 350.82103069072093,62.76984834968778 C 351.28958527995405,62.76984834968778 351.28958527995405,62.58251561106156 351.7581398691871,62.58251561106156 C 352.16955365485524,62.58251561106156 352.16955365485524,62.502230151650316 352.5809674405233,62.502230151650316 C 353.04571264285204,62.502230151650316 353.04571264285204,62.34165923282784 353.5104578451808,62.34165923282784 C 354.1694817796306,62.34165923282784 354.1694817796306,62.091882247992864 354.82850571408034,62.091882247992864 C 355.71990224969454,62.091882247992864 355.71990224969454,61.975914362176624 356.6112987853087,61.975914362176624 C 357.37698555307986,61.975914362176624 357.37698555307986,61.78858162355041 358.14267232085103,61.78858162355041 C 358.98073743980456,61.78858162355041 358.98073743980456,61.46743978590544 359.818802558758,61.46743978590544 C 360.71400848127655,61.46743978590544 360.71400848127655,61.280107047279216 361.609214403795,61.280107047279216 C 362.2568101775318,61.280107047279216 362.2568101775318,61.16413916146298 362.9044059512686,61.16413916146298 C 363.2777258678933,61.16413916146298 363.2777258678933,61.12845673505798 363.6510457845181,61.12845673505798 C 364.09293466542084,61.12845673505798 364.09293466542084,61.110615521855486 364.5348235463236,61.110615521855486 C 365.12527851649537,61.110615521855486 365.12527851649537,61.048171275646745 365.71573348666715,61.048171275646745 C 366.47761086753394,61.048171275646745 366.47761086753394,60.99464763603926 367.23948824840073,60.99464763603926 C 367.9480342126069,60.99464763603926 367.9480342126069,60.878679750223014 368.65658017681307,60.878679750223014 C 369.11370660533316,60.878679750223014 369.11370660533316,60.80731489741302 369.57083303385326,60.80731489741302 C 369.921296629052,60.80731489741302 369.921296629052,60.78055307760927 370.2717602242507,60.78055307760927 C 370.67936462301446,60.78055307760927 370.67936462301446,60.69134701159679 371.0869690217782,60.69134701159679 C 371.5898080931503,60.69134701159679 371.5898080931503,60.593220338983045 372.0926471645224,60.593220338983045 C 372.4926327894775,60.593220338983045 372.4926327894775,60.52185548617305 372.89261841443255,60.52185548617305 C 373.3459354560483,60.52185548617305 373.3459354560483,60.46833184656556 373.7992524976641,60.46833184656556 C 374.2144756702365,60.46833184656556 374.2144756702365,60.43264942016057 374.62969884280886,60.43264942016057 C 375.0715877237117,60.43264942016057 375.0715877237117,60.41480820695807 375.5134766046144,60.41480820695807 C 376.08869402716886,60.41480820695807 376.08869402716886,60.37020517395183 376.6639114497233,60.37020517395183 C 377.4372169913031,60.37020517395183 377.4372169913031,60.28991971454059 378.21052253288286,60.28991971454059 C 378.93049665780205,60.28991971454059 378.93049665780205,60.2363960749331 379.65047078272124,60.2363960749331 C 380.11140659814566,60.2363960749331 380.11140659814566,60.156110615521854 380.57234241357,60.156110615521854 C 380.91899662186444,60.156110615521854 380.91899662186444,60.120428189116865 381.26565083015885,60.120428189116865 C 381.6732552289226,60.120428189116865 381.6732552289226,60.04014272970562 382.0808596276864,60.04014272970562 C 382.5760799252498,60.04014272970562 382.5760799252498,59.94201605709189 383.0713002228132,59.94201605709189 C 383.47890462157693,59.94201605709189 383.47890462157693,59.90633363068689 383.88650902034067,59.90633363068689 C 384.3017321929131,59.90633363068689 384.3017321929131,59.870651204281884 384.71695536548555,59.870651204281884 C 385.1588442463883,59.870651204281884 385.1588442463883,59.826048171275644 385.600733127291,59.826048171275644 C 386.05024078200245,59.826048171275644 386.05024078200245,59.7636039250669 386.4997484367139,59.7636039250669 C 387.105440954503,59.7636039250669 387.105440954503,59.70115967885816 387.71113347229215,59.70115967885816 C 388.4844390138719,59.70115967885816 388.4844390138719,59.67439785905441 389.2577445554517,59.67439785905441 C 389.9624811327535,59.67439785905441 389.9624811327535,59.52274754683319 390.6672177100553,59.52274754683319 C 391.1281535254798,59.52274754683319 391.1281535254798,59.47814451382695 391.5890893409042,59.47814451382695 C 391.9357435491986,59.47814451382695 391.9357435491986,59.451382694023195 392.282397757493,59.451382694023195 C 393.19284122762883,59.451382694023195 393.19284122762883,59.27297056199822 394.10328469776465,59.27297056199822 C 394.47279522748505,59.27297056199822 394.47279522748505,59.18376449598573 394.84230575720545,59.18376449598573 C 395.26895709049086,59.18376449598573 395.26895709049086,59.13024085637822 395.6956084237763,59.13024085637822 C 396.114640983253,59.13024085637822 396.114640983253,58.93398751115076 396.5336735427298,58.93398751115076 C 397.619348810465,58.93398751115076 397.619348810465,58.08652988403212 398.7050240782002,58.08652988403212 C 399.4821390066844,58.08652988403212 399.4821390066844,57.24799286351471 400.25925393516854,57.24799286351471 C 400.9335154172357,57.24799286351471 400.9335154172357,56.61462979482606 401.60777689930285,56.61462979482606 C 402.0458563933013,56.61462979482606 402.0458563933013,56.31132917038359 402.48393588729965,56.31132917038359 C 402.8229713217854,56.31132917038359 402.8229713217854,56.00802854594113 403.1620067562711,56.00802854594113 C 403.56961115503486,56.00802854594113 403.56961115503486,55.68688670829617 403.9772155537986,55.68688670829617 C 404.44957952993605,55.68688670829617 404.44957952993605,54.87511150758252 404.92194350607343,54.87511150758252 C 405.35240422626316,54.87511150758252 405.35240422626316,54.2506690454951 405.78286494645295,54.2506690454951 C 406.21713505354705,54.2506690454951 406.21713505354705,53.87600356824264 406.6514051606411,53.87600356824264 C 407.07043772011787,53.87600356824264 407.07043772011787,53.465655664585185 407.48947027959457,53.465655664585185 C 407.9313591604973,53.465655664585185 407.9313591604973,53.18019625334523 408.37324804140013,53.18019625334523 C 408.9903687199022,53.18019625334523 408.9903687199022,52.94826048171275 409.60748939840437,52.94826048171275 C 410.3579386185582,52.94826048171275 410.3579386185582,52.5914362176628 411.108387838712,52.5914362176628 C 411.7483648386401,52.5914362176628 411.7483648386401,52.1721677074041 412.38834183856824,52.1721677074041 C 412.807374398045,52.1721677074041 412.807374398045,51.975914362176624 413.22640695752176,51.975914362176624 C 413.6073456479552,51.975914362176624 413.6073456479552,51.833184656556654 413.98828433838855,51.833184656556654 C 414.41493567167396,51.833184656556654 414.41493567167396,51.708296164139156 414.84158700495937,51.708296164139156 C 415.28728527276644,51.708296164139156 415.28728527276644,51.610169491525426 415.73298354057357,51.610169491525426 C 416.18630058218935,51.610169491525426 416.18630058218935,51.49420160570919 416.63961762380507,51.49420160570919 C 417.1005534392295,51.49420160570919 417.1005534392295,51.06601248884924 417.5614892546539,51.06601248884924 C 417.9919499748437,51.06601248884924 417.9919499748437,50.914362176628 418.4224106950334,50.914362176628 C 418.88334651045784,50.914362176628 418.88334651045784,50.6199821587868 419.34428232588226,50.6199821587868 C 419.9880687127147,50.6199821587868 419.9880687127147,50.45049063336306 420.6318550995472,50.45049063336306 C 421.44325451017033,50.45049063336306 421.44325451017033,50.227475468331846 422.2546539207935,50.227475468331846 C 422.9251060159563,50.227475468331846 422.9251060159563,49.95985727029438 423.59555811111915,49.95985727029438 C 424.0145906705959,49.95985727029438 424.0145906705959,49.888492417484386 424.4336232300726,49.888492417484386 C 424.72694602170634,49.888492417484386 424.72694602170634,49.799286351471906 425.02026881334007,49.799286351471906 C 425.4278732121038,49.799286351471906 425.4278732121038,49.745762711864415 425.83547761086754,49.745762711864415 C 426.2773664917703,49.745762711864415 426.2773664917703,49.68331846565566 426.71925537267305,49.68331846565566 C 427.1649536404801,49.68331846565566 427.1649536404801,49.47814451382693 427.6106519082872,49.47814451382693 C 428.08301588442464,49.47814451382693 428.08301588442464,49.37109723461195 428.555379860562,49.37109723461195 C 428.9744124200388,49.37109723461195 428.9744124200388,49.29973238180196 429.39344497951555,49.29973238180196 C 429.8619995687486,49.29973238180196 429.8619995687486,49.20160570918823 430.33055415798174,49.20160570918823 C 431.0619564436139,49.20160570918823 431.0619564436139,49.157002676181975 431.79335872924605,49.157002676181975 C 432.6199956874865,49.157002676181975 432.6199956874865,49.023193577163255 433.446632645727,49.023193577163255 C 434.1627973837418,49.023193577163255 434.1627973837418,48.92506690454951 434.8789621217566,48.92506690454951 C 435.6827427585711,48.92506690454951 435.6827427585711,48.84478144513827 436.48652339538563,48.84478144513827 C 437.3093509667218,48.84478144513827 437.3093509667218,48.62176628010704 438.13217853805793,48.62176628010704 C 438.49026090706536,48.62176628010704 438.49026090706536,48.55040142729705 438.84834327607274,48.55040142729705 C 439.3245166391145,48.55040142729705 439.3245166391145,48.43443354148083 439.8006900021563,48.43443354148083 C 440.1702005318767,48.43443354148083 440.1702005318767,48.32738626226583 440.5397110615971,48.32738626226583 C 440.93969668655217,48.32738626226583 440.93969668655217,48.23818019625334 441.33968231150726,48.23818019625334 C 441.952993603105,48.23818019625334 441.952993603105,48.0865298840321 442.5663048947028,48.0865298840321 C 443.37008553151725,48.0865298840321 443.37008553151725,48.015165031222125 444.17386616833176,48.015165031222125 C 444.8938402932509,48.015165031222125 444.8938402932509,47.90811775200713 445.61381441817,47.90811775200713 C 446.4328326026019,47.90811775200713 446.4328326026019,47.827832292595886 447.25185078703373,47.827832292595886 C 447.60231438223246,47.827832292595886 447.60231438223246,47.694023193577166 447.9527779774312,47.694023193577166 C 448.4670452095163,47.694023193577166 448.4670452095163,47.31935771632472 448.98131244160135,47.31935771632472 C 449.3546323582261,47.31935771632472 449.3546323582261,46.87332738626226 449.72795227485085,46.87332738626226 C 450.1698411557536,46.87332738626226 450.1698411557536,46.46297948260481 450.61173003665635,46.46297948260481 C 451.0498095306548,46.46297948260481 451.0498095306548,46.03479036574487 451.4878890246532,46.03479036574487 C 451.89549342341695,46.03479036574487 451.89549342341695,45.829616413916156 452.3030978221807,45.829616413916156 C 452.9164091137785,45.829616413916156 452.9164091137785,45.55307760927744 453.5297204053763,45.55307760927744 C 454.33731042909506,45.55307760927744 454.33731042909506,45.27653880463872 455.1449004528139,45.27653880463872 C 455.8686839646374,45.27653880463872 455.8686839646374,45.06244424620874 456.59246747646085,45.06244424620874 C 457.4076762739884,45.06244424620874 457.4076762739884,44.812667261373775 458.22288507151586,44.812667261373775 C 458.5962049881406,44.812667261373775 458.5962049881406,44.66993755575379 458.96952490476536,44.66993755575379 C 459.44950765471145,44.66993755575379 459.44950765471145,44.482604817127566 459.92949040465754,44.482604817127566 C 460.3142384819953,44.482604817127566 460.3142384819953,44.33987511150758 460.698986559333,44.33987511150758 C 461.11420973190536,44.33987511150758 461.11420973190536,44.197145405887596 461.5294329044778,44.197145405887596 C 461.9827499460936,44.197145405887596 461.9827499460936,44.000892060660135 462.4360669877093,44.000892060660135 C 462.88557464242075,44.000892060660135 462.88557464242075,43.92952720785014 463.3350822971322,43.92952720785014 C 463.9902968446777,43.92952720785014 463.9902968446777,43.84032114183765 464.6455113922231,43.84032114183765 C 465.44929202903757,43.84032114183765 465.44929202903757,43.751115075825155 466.2530726658521,43.751115075825155 C 466.9159059872062,43.751115075825155 466.9159059872062,43.59054415700268 467.57873930856033,43.59054415700268 C 468.40156687989645,43.59054415700268 468.40156687989645,43.41213202497771 469.2243944512326,43.41213202497771 C 469.593904980953,43.41213202497771 469.593904980953,43.278322925958975 469.9634155106734,43.278322925958975 C 470.5157766118019,43.278322925958975 470.5157766118019,43.082069580731485 471.06813771293037,43.082069580731485 C 471.3766980521814,43.082069580731485 471.3766980521814,42.9393398751115 471.68525839143246,42.9393398751115 C 472.1004815640049,42.9393398751115 472.1004815640049,42.85905441570026 472.5157047365773,42.85905441570026 C 472.9499748436714,42.85905441570026 472.9499748436714,42.752007136485275 473.38424495076544,42.752007136485275 C 473.82232444476386,42.752007136485275 473.82232444476386,42.662801070472796 474.2604039387623,42.662801070472796 C 474.88133400416876,42.662801070472796 474.88133400416876,42.5735950044603 475.50226406957523,42.5735950044603 C 476.30223531948536,42.5735950044603 476.30223531948536,42.43978590544157 477.1022065693955,42.43978590544157 C 477.81075253360166,42.43978590544157 477.81075253360166,42.323818019625335 478.51929849780777,42.323818019625335 C 479.3002228131963,42.323818019625335 479.3002228131963,42.19892952720785 480.0811471285848,42.19892952720785 C 480.4811327535399,42.19892952720785 480.4811327535399,42.14540588760036 480.88111837849493,42.14540588760036 C 481.3572917415367,42.14540588760036 481.3572917415367,42.06512042818912 481.83346510457847,42.06512042818912 C 482.29059153309856,42.06512042818912 482.29059153309856,42.02051739518288 482.7477179616186,42.02051739518288 C 483.16675052109537,42.02051739518288 483.16675052109537,41.95807314897412 483.5857830805721,41.95807314897412 C 483.9819593186229,41.95807314897412 483.9819593186229,41.86886708296164 484.3781355566736,41.86886708296164 C 484.82764321138507,41.86886708296164 484.82764321138507,41.8064228367529 485.27715086609646,41.8064228367529 C 485.8752246100769,41.8064228367529 485.8752246100769,41.72613737734166 486.47329835405736,41.72613737734166 C 487.2580320563502,41.72613737734166 487.2580320563502,41.63693131132918 488.042765758643,41.63693131132918 C 488.7055990799971,41.63693131132918 488.7055990799971,41.556645851917935 489.36843240135124,41.556645851917935 C 489.74175231797597,41.556645851917935 489.74175231797597,41.44067796610169 490.11507223460075,41.44067796610169 C 490.4731546036081,41.44067796610169 490.4731546036081,41.33363068688671 490.83123697261556,41.33363068688671 C 491.2731258535183,41.33363068688671 491.2731258535183,41.315789473684205 491.715014734421,41.315789473684205 C 492.16071300222814,41.315789473684205 492.16071300222814,41.253345227475464 492.6064112700352,41.253345227475464 C 493.0254438295119,41.253345227475464 493.0254438295119,41.14629794826048 493.4444763889887,41.14629794826048 C 493.92064975203044,41.14629794826048 493.92064975203044,41.030330062444236 494.3968231150722,41.030330062444236 C 494.81585567454897,41.030330062444236 494.81585567454897,40.932203389830505 495.23488823402573,40.932203389830505 C 495.7034428232588,40.932203389830505 495.7034428232588,40.842997323818025 496.1719974124919,40.842997323818025 C 496.86149644217636,40.842997323818025 496.86149644217636,40.79839429081177 497.5509954718608,40.79839429081177 C 498.37763243010136,40.79839429081177 498.37763243010136,40.70918822479929 499.20426938834186,40.70918822479929 C 499.832818227557,40.70918822479929 499.832818227557,40.6378233719893 500.46136706677214,40.6378233719893 C 501.1775318047869,40.6378233719893 501.1775318047869,40.43264942016057 501.8936965428017,40.43264942016057 C 502.2822540070438,40.43264942016057 502.2822540070438,40.37020517395183 502.67081147128584,40.37020517395183 C 503.13174728671027,40.37020517395183 503.13174728671027,40.33452274754683 503.5926831021347,40.33452274754683 C 504.0079062747071,40.33452274754683 504.0079062747071,40.28099910793934 504.4231294472795,40.28099910793934 C 504.91454035793856,40.28099910793934 504.91454035793856,40.209634255129345 505.4059512685977,40.209634255129345 C 505.82879321497876,40.209634255129345 505.82879321497876,40.120428189116865 506.2516351613599,40.120428189116865 C 506.72399913749734,40.120428189116865 506.72399913749734,40.07582515611061 507.19636311363473,40.07582515611061 C 507.8858621433192,40.07582515611061 507.8858621433192,40.03122212310437 508.57536117300367,40.03122212310437 C 509.44390138719183,40.03122212310437 509.44390138719183,39.95093666369313 510.31244160138,39.95093666369313 C 511.1809818155682,39.95093666369313 511.1809818155682,39.8528099910794 512.0495220297564,39.8528099910794 C 512.8228275713362,39.8528099910794 512.8228275713362,39.71900089206065 513.596133112916,39.71900089206065 C 514.3503917199741,39.71900089206065 514.3503917199741,39.69223907225691 515.1046503270322,39.69223907225691 C 515.797958743621,39.69223907225691 515.797958743621,39.57627118644068 516.4912671602099,39.57627118644068 C 516.9179184934953,39.57627118644068 516.9179184934953,39.540588760035675 517.3445698267807,39.540588760035675 C 517.7597929993531,39.540588760035675 517.7597929993531,39.504906333630686 518.1750161719256,39.504906333630686 C 518.7654711420973,39.504906333630686 518.7654711420973,39.415700267618206 519.3559261122691,39.415700267618206 C 520.1482785883707,39.415700267618206 520.1482785883707,39.37109723461195 520.9406310644721,39.37109723461195 C 521.6986990584346,39.37109723461195 521.6986990584346,39.32649420160571 522.456767052397,39.32649420160571 C 523.2872133975419,39.32649420160571 523.2872133975419,39.26404995539697 524.1176597426868,39.26404995539697 C 524.4909796593115,39.26404995539697 524.4909796593115,39.23728813559322 524.8642995759362,39.23728813559322 C 526.5785236828865,39.23728813559322 526.5785236828865,39.157002676181975 528.2927477898368,39.157002676181975 C 528.7193991231222,39.157002676181975 528.7193991231222,39.04103479036574 529.1460504564077,39.04103479036574 C 529.7365054265795,39.04103479036574 529.7365054265795,38.978590544157 530.3269603967512,38.978590544157 C 531.1383598073744,38.978590544157 531.1383598073744,38.86262265834077 531.9497592179976,38.86262265834077 C 532.70782721196,38.86262265834077 532.70782721196,38.746654772524536 533.4658952059225,38.746654772524536 C 534.2887227772587,38.746654772524536 534.2887227772587,38.69313113291703 535.1115503485948,38.69313113291703 C 535.5305829080716,38.69313113291703 535.5305829080716,38.63960749330954 535.9496154675483,38.63960749330954 C 536.4105512829727,38.63960749330954 536.4105512829727,38.56824264049956 536.8714870983972,38.56824264049956 C 537.1724286638396,38.56824264049956 537.1724286638396,38.407671721677076 537.473370229282,38.407671721677076 C 537.8962121756631,38.407671721677076 537.8962121756631,38.291703835860844 538.3190541220441,38.291703835860844 C 538.7304679077122,38.291703835860844 538.7304679077122,38.1757359500446 539.1418816933804,38.1757359500446 C 539.6180550564221,38.1757359500446 539.6180550564221,38.03300624442463 540.0942284194639,38.03300624442463 C 540.6694458420183,38.03300624442463 540.6694458420183,37.89027653880464 541.2446632645726,37.89027653880464 C 542.0370157406742,37.89027653880464 542.0370157406742,37.667261373773414 542.8293682167757,37.667261373773414 C 543.5874362107381,37.667261373773414 543.5874362107381,37.54237288135593 544.3455042047007,37.54237288135593 C 545.1835693236542,37.54237288135593 545.1835693236542,37.39072256913471 546.0216344426076,37.39072256913471 C 546.3987637461366,37.39072256913471 546.3987637461366,37.283675289919714 546.7758930496658,37.283675289919714 C 547.313016603177,37.283675289919714 547.313016603177,37.03389830508475 547.850140156688,37.03389830508475 C 548.1891755911737,37.03389830508475 548.1891755911737,36.953612845673504 548.5282110256594,36.953612845673504 C 548.9586717458492,36.953612845673504 548.9586717458492,36.81088314005352 549.389132466039,36.81088314005352 C 549.7967368648027,36.81088314005352 549.7967368648027,36.60570918822479 550.2043412635664,36.60570918822479 C 550.6652770789908,36.60570918822479 550.6652770789908,36.48082069580731 551.1262128944153,36.48082069580731 C 551.773808668152,36.48082069580731 551.773808668152,36.33809099018734 552.4214044418889,36.33809099018734 C 553.2518507870336,36.33809099018734 553.2518507870336,36.1685994647636 554.0822971321785,36.1685994647636 C 554.7984618701933,36.1685994647636 554.7984618701933,36.02586975914362 555.5146266082081,36.02586975914362 C 556.2803133759793,36.02586975914362 556.2803133759793,35.874219446922396 557.0460001437505,35.874219446922396 C 557.4155106734709,35.874219446922396 557.4155106734709,35.802854594112404 557.7850212031913,35.802854594112404 C 558.3335729174154,35.802854594112404 558.3335729174154,35.68688670829617 558.8821246316395,35.68688670829617 C 559.2021131316035,35.68688670829617 559.2021131316035,35.58876003568243 559.5221016315676,35.58876003568243 C 559.93732480414,35.58876003568243 559.93732480414,35.47279214986618 560.3525479767125,35.47279214986618 C 560.7563429885719,35.47279214986618 560.7563429885719,35.33006244424621 561.1601380004313,35.33006244424621 C 561.6096456551427,35.33006244424621 561.6096456551427,35.249776984834966 562.0591533098541,35.249776984834966 C 562.7334147919212,35.249776984834966 562.7334147919212,35.11596788581623 563.4076762739884,35.11596788581623 C 564.2038381369941,35.11596788581623 564.2038381369941,35.0 565.0,35.0 L 565.0,125 L 35.0,125 Z" />

  <!-- Main curve -->
  <path d="M 35.0,125.0 C 35.23618198806871,125.0 35.23618198806871,124.87511150758252 35.47236397613742,124.87511150758252 C 36.30661970818659,124.87511150758252 36.30661970818659,124.5272078501338 37.14087544023575,124.5272078501338 C 38.41702005318767,124.5272078501338 38.41702005318767,123.97413024085638 39.69316466613958,123.97413024085638 C 40.53884855890175,123.97413024085638 40.53884855890175,123.67082961641391 41.38453245166391,123.67082961641391 C 41.754042981384316,123.67082961641391 41.754042981384316,123.62622658340767 42.123553511104724,123.62622658340767 C 42.64163013009416,123.62622658340767 42.64163013009416,123.28724353256021 43.15970674908359,123.28724353256021 C 43.48350463595199,123.28724353256021 43.48350463595199,123.12667261373774 43.807302522820386,123.12667261373774 C 44.26442895134048,123.12667261373774 44.26442895134048,122.93933987511151 44.72155537986056,122.93933987511151 C 45.14820671314598,122.93933987511151 45.14820671314598,122.87689562890276 45.574858046431395,122.87689562890276 C 46.031984474951486,122.87689562890276 46.031984474951486,122.78768956289028 46.48911090347157,122.78768956289028 C 47.319557248616405,122.78768956289028 47.319557248616405,122.63603925066904 48.150003593761234,122.63603925066904 C 49.807086897146554,122.63603925066904 49.807086897146554,122.43086529884032 51.464170200531875,122.43086529884032 C 89.86279019621936,122.43086529884032 89.86279019621936,102.33273862622659 128.26141019190686,102.33273862622659 C 129.4842233881981,102.33273862622659 129.4842233881981,102.12756467439786 130.70703658448934,102.12756467439786 C 132.23841012003163,102.12756467439786 132.23841012003163,101.25334522747546 133.76978365557392,101.25334522747546 C 134.05929706030332,101.25334522747546 134.05929706030332,101.09277430865299 134.3488104650327,101.09277430865299 C 135.01164378638686,101.09277430865299 135.01164378638686,100.87867975022301 135.67447710774098,100.87867975022301 C 136.94300294688423,100.87867975022301 136.94300294688423,100.45049063336307 138.21152878602746,100.45049063336307 C 138.9543592323726,100.45049063336307 138.9543592323726,100.15611061552185 139.69718967871773,100.15611061552185 C 141.2666570833034,100.15611061552185 141.2666570833034,99.71008028545941 142.83612448788904,99.71008028545941 C 143.30848846402645,99.71008028545941 143.30848846402645,99.62087421944692 143.78085244016387,99.62087421944692 C 144.13893480917127,99.62087421944692 144.13893480917127,99.54058876003569 144.49701717817868,99.54058876003569 C 144.86271832099476,99.54058876003569 144.86271832099476,99.48706512042818 145.22841946381084,99.48706512042818 C 145.94458420182565,99.48706512042818 145.94458420182565,99.3443354148082 146.66074893984046,99.3443354148082 C 147.89879968374902,99.3443354148082 147.89879968374902,99.15700267618197 149.13685042765758,99.15700267618197 C 149.8530151656724,99.15700267618197 149.8530151656724,98.9964317573595 150.5691799036872,98.9964317573595 C 151.34629483217134,98.9964317573595 151.34629483217134,98.83586083853702 152.1234097606555,98.83586083853702 C 152.97290304032202,98.83586083853702 152.97290304032202,98.32738626226583 153.8223963199885,98.32738626226583 C 154.19571623661324,98.32738626226583 154.19571623661324,98.13113291703836 154.56903615323796,98.13113291703836 C 154.99187809961904,98.13113291703836 154.99187809961904,97.87243532560214 155.41472004600013,97.87243532560214 C 155.80708689714655,97.87243532560214 155.80708689714655,97.66726137377341 156.19945374829297,97.66726137377341 C 156.91561848630778,97.66726137377341 156.91561848630778,96.89116859946476 157.6317832243226,96.89116859946476 C 158.8736433551355,96.89116859946476 158.8736433551355,95.7850133809099 160.1155034859484,95.7850133809099 C 160.80119312872853,95.7850133809099 160.80119312872853,95.42818911685994 161.48688277150865,95.42818911685994 C 162.27923524761013,95.42818911685994 162.27923524761013,94.9821587867975 163.07158772371164,94.9821587867975 C 163.98964996765613,94.9821587867975 163.98964996765613,94.49152542372882 164.90771221160065,94.49152542372882 C 165.66578020556312,94.49152542372882 165.66578020556312,94.25958965209634 166.42384819952562,94.25958965209634 C 166.82764321138504,94.25958965209634 166.82764321138504,94.16146297948261 167.23143822324445,94.16146297948261 C 167.92093725292892,94.16146297948261 167.92093725292892,93.98305084745763 168.6104362826134,93.98305084745763 C 169.87896212175662,93.98305084745763 169.87896212175662,93.63514719000892 171.14748796089987,93.63514719000892 C 171.8407963774887,93.63514719000892 171.8407963774887,93.55486173059768 172.53410479407748,93.55486173059768 C 173.28455401423128,93.55486173059768 173.28455401423128,93.40321141837646 174.0350032343851,93.40321141837646 C 174.55688924027888,93.40321141837646 174.55688924027888,93.23371989295272 175.07877524617265,93.23371989295272 C 175.8025587579961,93.23371989295272 175.8025587579961,93.06422836752898 176.5263422698196,93.06422836752898 C 176.92632789477466,93.06422836752898 176.92632789477466,92.992863514719 177.32631351972972,92.992863514719 C 177.73010853158917,92.992863514719 177.73010853158917,92.93041926851026 178.13390354344858,92.93041926851026 C 178.83864012075037,92.93041926851026 178.83864012075037,92.82337198929527 179.54337669805219,92.82337198929527 C 180.62143319197872,92.82337198929527 180.62143319197872,92.76984834968778 181.6994896859053,92.76984834968778 C 182.42327319772875,92.76984834968778 182.42327319772875,92.65388046387154 183.14705670955223,92.65388046387154 C 183.46323582261198,92.65388046387154 183.46323582261198,92.62711864406779 183.7794149356717,92.62711864406779 C 184.18701933443543,92.62711864406779 184.18701933443543,92.55575379125781 184.59462373319917,92.55575379125781 C 185.0593689355279,92.55575379125781 185.0593689355279,92.48438893844781 185.52411413785669,92.48438893844781 C 185.93171853662045,92.48438893844781 185.93171853662045,92.39518287243533 186.3393229353842,92.39518287243533 C 186.8231150722346,92.39518287243533 186.8231150722346,92.34165923282784 187.30690720908504,92.34165923282784 C 187.71451160784878,92.34165923282784 187.71451160784878,92.02051739518288 188.12211600661252,92.02051739518288 C 188.59447998274993,92.02051739518288 188.59447998274993,91.6993755575379 189.06684395888738,91.6993755575379 C 189.83253072665855,91.6993755575379 189.83253072665855,91.3693131132917 190.5982174944297,91.3693131132917 C 191.8515057859556,91.3693131132917 191.8515057859556,90.74487065120428 193.1047940774815,90.74487065120428 C 193.70286782146195,90.74487065120428 193.70286782146195,90.45049063336307 194.30094156544237,90.45049063336307 C 194.95615611298786,90.45049063336307 194.95615611298786,90.1293487957181 195.61137066053334,90.1293487957181 C 196.06087831524474,90.1293487957181 196.06087831524474,89.92417484388938 196.51038596995616,89.92417484388938 C 196.91799036871993,89.92417484388938 196.91799036871993,89.72792149866191 197.32559476748366,89.72792149866191 C 197.79795874362108,89.72792149866191 197.79795874362108,89.4513826940232 198.2703227197585,89.4513826940232 C 198.68935527923526,89.4513826940232 198.68935527923526,88.94290811775201 199.108387838712,88.94290811775201 C 199.57313304104076,88.94290811775201 199.57313304104076,88.34522747546833 200.0378782433695,88.34522747546833 C 200.80356501114068,88.34522747546833 200.80356501114068,87.76538804638716 201.56925177891182,87.76538804638716 C 203.07395960612376,87.76538804638716 203.07395960612376,86.81088314005352 204.57866743333574,86.81088314005352 C 205.75576798677497,86.81088314005352 205.75576798677497,86.15967885816235 206.9328685402142,86.15967885816235 C 207.591892474664,86.15967885816235 207.591892474664,85.69580731489742 208.25091640911378,85.69580731489742 C 208.89851218285057,85.69580731489742 208.89851218285057,85.41926851025869 209.54610795658735,85.41926851025869 C 209.90799971249908,85.41926851025869 209.90799971249908,85.26761819803747 210.26989146841083,85.26761819803747 C 210.61273628980092,85.26761819803747 210.61273628980092,85.22301516503123 210.95558111119098,85.22301516503123 C 211.7288866527708,85.22301516503123 211.7288866527708,84.9464763603925 212.5021921943506,84.9464763603925 C 213.77071803349384,84.9464763603925 213.77071803349384,84.63425512934879 215.0392438726371,84.63425512934879 C 215.74778983684325,84.63425512934879 215.74778983684325,84.33095450490633 216.4563358010494,84.33095450490633 C 217.1610723783512,84.33095450490633 217.1610723783512,84.09901873327385 217.865808955653,84.09901873327385 C 218.4067418960684,84.09901873327385 218.4067418960684,83.82247992863515 218.94767483648386,83.82247992863515 C 219.690505282829,83.82247992863515 219.690505282829,83.58162355040142 220.43333572917416,83.58162355040142 C 220.85998706245957,83.58162355040142 220.85998706245957,83.4834968777877 221.28663839574497,83.4834968777877 C 221.67138647308272,83.4834968777877 221.67138647308272,83.4121320249777 222.05613455042047,83.4121320249777 C 222.78372744914827,83.4121320249777 222.78372744914827,83.32292595896521 223.51132034787608,83.32292595896521 C 224.83698699058434,83.32292595896521 224.83698699058434,83.0107047279215 226.1626536332926,83.0107047279215 C 227.17214116294113,83.0107047279215 227.17214116294113,82.77876895628903 228.18162869258967,82.77876895628903 C 229.05016890677783,82.77876895628903 229.05016890677783,82.60927743086529 229.91870912096599,82.60927743086529 C 230.65392079350246,82.60927743086529 230.65392079350246,82.43978590544157 231.38913246603894,82.43978590544157 C 231.80054625170703,82.43978590544157 231.80054625170703,82.36842105263159 232.21196003737512,82.36842105263159 C 232.61194566233019,82.36842105263159 232.61194566233019,82.27029438001784 233.01193128728528,82.27029438001784 C 233.71666786458707,82.27029438001784 233.71666786458707,82.13648528099911 234.42140444188885,82.13648528099911 C 235.54136419176308,82.13648528099911 235.54136419176308,82.00267618198038 236.6613239416373,82.00267618198038 C 237.44986703083447,82.00267618198038 237.44986703083447,81.8777876895629 238.23841012003163,81.8777876895629 C 238.92409976281175,81.8777876895629 238.92409976281175,81.66369313113292 239.6097894055919,81.66369313113292 C 240.18881621505068,81.66369313113292 240.18881621505068,81.56556645851919 240.76784302450943,81.56556645851919 C 241.17925681017752,81.56556645851919 241.17925681017752,81.49420160570918 241.5906705958456,81.49420160570918 C 241.89542154819236,81.49420160570918 241.89542154819236,81.4228367528992 242.20017250053908,81.4228367528992 C 242.60015812549415,81.4228367528992 242.60015812549415,81.3871543264942 243.0001437504492,81.3871543264942 C 243.47250772658663,81.3871543264942 243.47250772658663,81.30686886708295 243.94487170272407,81.30686886708295 C 244.6077050240782,81.30686886708295 244.6077050240782,80.92328278322927 245.27053834543233,80.92328278322927 C 246.15431610723783,80.92328278322927 246.15431610723783,80.42372881355932 247.03809386904334,80.42372881355932 C 247.7390210594408,80.42372881355932 247.7390210594408,80.05798394290812 248.4399482498383,80.05798394290812 C 249.1789693092791,80.05798394290812 249.1789693092791,79.59411239964317 249.9179903687199,79.59411239964317 C 250.39416373176167,79.59411239964317 250.39416373176167,79.32649420160571 250.87033709480343,79.32649420160571 C 251.57888305900957,79.32649420160571 251.57888305900957,78.96966993755575 252.2874290232157,78.96966993755575 C 252.70265219578812,78.96966993755575 252.70265219578812,78.83586083853703 253.11787536836053,78.83586083853703 C 253.54452670164594,78.83586083853703 253.54452670164594,78.74665477252452 253.97117803493134,78.74665477252452 C 254.4359232372601,78.74665477252452 254.4359232372601,78.35414808206959 254.90066843958888,78.35414808206959 C 255.56731114784736,78.35414808206959 255.56731114784736,77.90811775200714 256.2339538561058,77.90811775200714 C 257.09868468338965,77.90811775200714 257.09868468338965,77.39072256913471 257.9634155106735,77.39072256913471 C 258.5957737367929,77.39072256913471 258.5957737367929,77.078501338091 259.22813196291236,77.078501338091 C 259.8947746711708,77.078501338091 259.8947746711708,76.78412132024978 260.5614173794293,76.78412132024978 C 260.94235606986274,76.78412132024978 260.94235606986274,76.65923282783228 261.3232947602961,76.65923282783228 C 261.7842305757205,76.65923282783228 261.7842305757205,76.28456735057983 262.24516639114495,76.28456735057983 C 262.67943649823906,76.28456735057983 262.67943649823906,76.02586975914363 263.11370660533316,76.02586975914363 C 263.5784518076619,76.02586975914363 263.5784518076619,75.7671721677074 264.04319700999065,75.7671721677074 C 264.4584201825631,75.7671721677074 264.4584201825631,75.61552185548618 264.8736433551355,75.61552185548618 C 265.3421979443686,75.61552185548618 265.3421979443686,75.5084745762712 265.81075253360166,75.5084745762712 C 266.5307266585208,75.5084745762712 266.5307266585208,75.2943800178412 267.2507007834399,75.2943800178412 C 268.1649536404801,75.2943800178412 268.1649536404801,75.07136485280998 269.0792064975203,75.07136485280998 C 269.7039459498311,75.07136485280998 269.7039459498311,74.85727029438002 270.3286854021419,74.85727029438002 C 270.9534248544527,74.85727029438002 270.9534248544527,74.69669937555754 271.5781643067635,74.69669937555754 C 271.96291238410123,74.69669937555754 271.96291238410123,74.6164139161463 272.347660461439,74.6164139161463 C 272.8085962768634,74.6164139161463 272.8085962768634,74.50044603033007 273.2695320922878,74.50044603033007 C 273.6847552648602,74.50044603033007 273.6847552648602,74.38447814451382 274.0999784374326,74.38447814451382 C 274.57615180047435,74.38447814451382 274.57615180047435,74.24174843889384 275.0523251635161,74.24174843889384 C 275.45612017537553,74.24174843889384 275.45612017537553,74.18822479928636 275.85991518723495,74.18822479928636 C 276.3360885502767,74.18822479928636 276.3360885502767,74.06333630686888 276.8122619133185,74.06333630686888 C 277.54366419895064,74.06333630686888 277.54366419895064,73.90276538804639 278.2750664845828,73.90276538804639 C 279.6731114784734,73.90276538804639 279.6731114784734,73.67082961641391 281.071156472364,73.67082961641391 C 282.3206353769856,73.67082961641391 282.3206353769856,73.36752899197145 283.5701142816072,73.36752899197145 C 284.29770718033495,73.36752899197145 284.29770718033495,73.26048171275647 285.02530007906273,73.26048171275647 C 285.65384891827784,73.26048171275647 285.65384891827784,73.18019625334523 286.28239775749296,73.18019625334523 C 286.6900021562567,73.18019625334523 286.6900021562567,73.14451382694023 287.0976065550205,73.14451382694023 C 287.46330769783657,73.14451382694023 287.46330769783657,73.10883140053524 287.82900884065265,73.10883140053524 C 288.5185078703371,73.10883140053524 288.5185078703371,73.0463871543265 289.2080069000216,73.0463871543265 C 290.1413066915834,73.0463871543265 290.1413066915834,72.9393398751115 291.07460648314526,72.9393398751115 C 292.1488535901675,72.9393398751115 292.1488535901675,72.81445138269403 293.2231006971897,72.81445138269403 C 293.98497807805654,72.81445138269403 293.98497807805654,72.68956289027653 294.74685545892333,72.68956289027653 C 295.61158628620717,72.68956289027653 295.61158628620717,72.54683318465655 296.47631711349095,72.54683318465655 C 296.887730899159,72.54683318465655 296.887730899159,72.4665477252453 297.2991446848271,72.4665477252453 C 298.0305469704593,72.4665477252453 298.0305469704593,72.39518287243533 298.76194925609144,72.39518287243533 C 299.35621361316754,72.39518287243533 299.35621361316754,72.34165923282782 299.95047797024364,72.34165923282782 C 300.75425860705815,72.34165923282782 300.75425860705815,72.28813559322035 301.55803924387266,72.28813559322035 C 302.27420398188747,72.28813559322035 302.27420398188747,72.24353256021409 302.9903687199023,72.24353256021409 C 303.8093869043341,72.24353256021409 303.8093869043341,72.1543264942016 304.6284050887659,72.1543264942016 C 305.03220010062535,72.1543264942016 305.03220010062535,72.08296164139162 305.43599511248476,72.08296164139162 C 306.0074031481348,72.08296164139162 306.0074031481348,71.95807314897414 306.5788111837849,71.95807314897414 C 306.9026090706533,71.95807314897414 306.9026090706533,71.92239072256913 307.2264069575217,71.92239072256913 C 307.61877380866815,71.92239072256913 307.61877380866815,71.85102586975916 308.01114065981454,71.85102586975916 C 308.4301732192913,71.85102586975916 308.4301732192913,71.8064228367529 308.84920577876807,71.8064228367529 C 309.30633220728816,71.8064228367529 309.30633220728816,71.77966101694915 309.76345863580826,71.77966101694915 C 310.4262919571624,71.77966101694915 310.4262919571624,71.75289919714541 311.0891252785165,71.75289919714541 C 312.0224250700784,71.75289919714541 312.0224250700784,71.66369313113292 312.9557248616402,71.66369313113292 C 313.73283979012433,71.66369313113292 313.73283979012433,71.61909009812666 314.5099547186085,71.61909009812666 C 315.222310069719,71.61909009812666 315.222310069719,71.54772524531668 315.93466542082945,71.54772524531668 C 316.8374901171566,71.54772524531668 316.8374901171566,71.4049955396967 317.7403148134838,71.4049955396967 C 318.41838568245527,71.4049955396967 318.41838568245527,71.32471008028546 319.09645655142674,71.32471008028546 C 319.51929849780777,71.32471008028546 319.51929849780777,71.128456735058 319.94214044418885,71.128456735058 C 320.36498239056993,71.128456735058 320.36498239056993,70.71810883140054 320.7878243369511,70.71810883140054 C 321.4201825630705,70.71810883140054 321.4201825630705,70.42372881355932 322.05254078919,70.42372881355932 C 322.98584058075187,70.42372881355932 322.98584058075187,69.8349687778769 323.9191403723137,69.8349687778769 C 324.6276863365198,69.8349687778769 324.6276863365198,69.51382694023194 325.33623230072595,69.51382694023194 C 326.09810968159275,69.51382694023194 326.09810968159275,69.15700267618197 326.8599870624596,69.15700267618197 C 327.75138359807374,69.15700267618197 327.75138359807374,68.72881355932203 328.64278013368795,68.72881355932203 C 329.3322791633724,68.72881355932203 329.3322791633724,68.45227475468332 330.02177819305683,68.45227475468332 C 330.4217638180119,68.45227475468332 330.4217638180119,68.30954504906333 330.821749442967,68.30954504906333 C 331.2407820024438,68.30954504906333 331.2407820024438,68.22033898305085 331.6598145619205,68.22033898305085 C 332.2616976928052,68.22033898305085 332.2616976928052,67.7743086529884 332.86358082369003,67.7743086529884 C 333.64831452598287,67.7743086529884 333.64831452598287,67.29259589652096 334.4330482282757,67.29259589652096 C 335.0349313591605,67.29259589652096 335.0349313591605,66.96253345227476 335.6368144900453,66.96253345227476 C 336.03680011500035,66.96253345227476 336.03680011500035,66.74843889384478 336.43678573995544,66.74843889384478 C 336.80629626967584,66.74843889384478 336.80629626967584,66.54326494201607 337.17580679939624,66.54326494201607 C 337.62912384101196,66.54326494201607 337.62912384101196,66.31132917038359 338.08244088262774,66.31132917038359 C 338.50909221591314,66.31132917038359 338.50909221591314,66.05263157894737 338.93574354919855,66.05263157894737 C 339.38525120391,66.05263157894737 339.38525120391,65.71364852809991 339.83475885862146,65.71364852809991 C 340.2956946740459,65.71364852809991 340.2956946740459,65.4727921498662 340.7566304894703,65.4727921498662 C 341.19470998346867,65.4727921498662 341.19470998346867,65.16057091882249 341.6327894774671,65.16057091882249 C 342.0822971321785,65.16057091882249 342.0822971321785,64.75914362176628 342.53180478688995,64.75914362176628 C 343.1908287213397,64.75914362176628 343.1908287213397,64.39339875111509 343.8498526557895,64.39339875111509 C 344.710774096169,64.39339875111509 344.710774096169,63.84924174843889 345.57169553654853,63.84924174843889 C 346.1888162150507,63.84924174843889 346.1888162150507,63.56378233719892 346.80593689355277,63.56378233719892 C 347.21354129231656,63.56378233719892 347.21354129231656,63.421052631578945 347.6211456910803,63.421052631578945 C 347.925896643427,63.421052631578945 347.925896643427,63.28724353256021 348.2306475957737,63.28724353256021 C 348.64587076834613,63.28724353256021 348.64587076834613,63.11775200713649 349.06109394091857,63.11775200713649 C 349.4953640480127,63.11775200713649 349.4953640480127,62.992863514719 349.9296341551067,62.992863514719 C 350.37533242291386,62.992863514719 350.37533242291386,62.76984834968778 350.82103069072093,62.76984834968778 C 351.28958527995405,62.76984834968778 351.28958527995405,62.58251561106156 351.7581398691871,62.58251561106156 C 352.16955365485524,62.58251561106156 352.16955365485524,62.502230151650316 352.5809674405233,62.502230151650316 C 353.04571264285204,62.502230151650316 353.04571264285204,62.34165923282784 353.5104578451808,62.34165923282784 C 354.1694817796306,62.34165923282784 354.1694817796306,62.091882247992864 354.82850571408034,62.091882247992864 C 355.71990224969454,62.091882247992864 355.71990224969454,61.975914362176624 356.6112987853087,61.975914362176624 C 357.37698555307986,61.975914362176624 357.37698555307986,61.78858162355041 358.14267232085103,61.78858162355041 C 358.98073743980456,61.78858162355041 358.98073743980456,61.46743978590544 359.818802558758,61.46743978590544 C 360.71400848127655,61.46743978590544 360.71400848127655,61.280107047279216 361.609214403795,61.280107047279216 C 362.2568101775318,61.280107047279216 362.2568101775318,61.16413916146298 362.9044059512686,61.16413916146298 C 363.2777258678933,61.16413916146298 363.2777258678933,61.12845673505798 363.6510457845181,61.12845673505798 C 364.09293466542084,61.12845673505798 364.09293466542084,61.110615521855486 364.5348235463236,61.110615521855486 C 365.12527851649537,61.110615521855486 365.12527851649537,61.048171275646745 365.71573348666715,61.048171275646745 C 366.47761086753394,61.048171275646745 366.47761086753394,60.99464763603926 367.23948824840073,60.99464763603926 C 367.9480342126069,60.99464763603926 367.9480342126069,60.878679750223014 368.65658017681307,60.878679750223014 C 369.11370660533316,60.878679750223014 369.11370660533316,60.80731489741302 369.57083303385326,60.80731489741302 C 369.921296629052,60.80731489741302 369.921296629052,60.78055307760927 370.2717602242507,60.78055307760927 C 370.67936462301446,60.78055307760927 370.67936462301446,60.69134701159679 371.0869690217782,60.69134701159679 C 371.5898080931503,60.69134701159679 371.5898080931503,60.593220338983045 372.0926471645224,60.593220338983045 C 372.4926327894775,60.593220338983045 372.4926327894775,60.52185548617305 372.89261841443255,60.52185548617305 C 373.3459354560483,60.52185548617305 373.3459354560483,60.46833184656556 373.7992524976641,60.46833184656556 C 374.2144756702365,60.46833184656556 374.2144756702365,60.43264942016057 374.62969884280886,60.43264942016057 C 375.0715877237117,60.43264942016057 375.0715877237117,60.41480820695807 375.5134766046144,60.41480820695807 C 376.08869402716886,60.41480820695807 376.08869402716886,60.37020517395183 376.6639114497233,60.37020517395183 C 377.4372169913031,60.37020517395183 377.4372169913031,60.28991971454059 378.21052253288286,60.28991971454059 C 378.93049665780205,60.28991971454059 378.93049665780205,60.2363960749331 379.65047078272124,60.2363960749331 C 380.11140659814566,60.2363960749331 380.11140659814566,60.156110615521854 380.57234241357,60.156110615521854 C 380.91899662186444,60.156110615521854 380.91899662186444,60.120428189116865 381.26565083015885,60.120428189116865 C 381.6732552289226,60.120428189116865 381.6732552289226,60.04014272970562 382.0808596276864,60.04014272970562 C 382.5760799252498,60.04014272970562 382.5760799252498,59.94201605709189 383.0713002228132,59.94201605709189 C 383.47890462157693,59.94201605709189 383.47890462157693,59.90633363068689 383.88650902034067,59.90633363068689 C 384.3017321929131,59.90633363068689 384.3017321929131,59.870651204281884 384.71695536548555,59.870651204281884 C 385.1588442463883,59.870651204281884 385.1588442463883,59.826048171275644 385.600733127291,59.826048171275644 C 386.05024078200245,59.826048171275644 386.05024078200245,59.7636039250669 386.4997484367139,59.7636039250669 C 387.105440954503,59.7636039250669 387.105440954503,59.70115967885816 387.71113347229215,59.70115967885816 C 388.4844390138719,59.70115967885816 388.4844390138719,59.67439785905441 389.2577445554517,59.67439785905441 C 389.9624811327535,59.67439785905441 389.9624811327535,59.52274754683319 390.6672177100553,59.52274754683319 C 391.1281535254798,59.52274754683319 391.1281535254798,59.47814451382695 391.5890893409042,59.47814451382695 C 391.9357435491986,59.47814451382695 391.9357435491986,59.451382694023195 392.282397757493,59.451382694023195 C 393.19284122762883,59.451382694023195 393.19284122762883,59.27297056199822 394.10328469776465,59.27297056199822 C 394.47279522748505,59.27297056199822 394.47279522748505,59.18376449598573 394.84230575720545,59.18376449598573 C 395.26895709049086,59.18376449598573 395.26895709049086,59.13024085637822 395.6956084237763,59.13024085637822 C 396.114640983253,59.13024085637822 396.114640983253,58.93398751115076 396.5336735427298,58.93398751115076 C 397.619348810465,58.93398751115076 397.619348810465,58.08652988403212 398.7050240782002,58.08652988403212 C 399.4821390066844,58.08652988403212 399.4821390066844,57.24799286351471 400.25925393516854,57.24799286351471 C 400.9335154172357,57.24799286351471 400.9335154172357,56.61462979482606 401.60777689930285,56.61462979482606 C 402.0458563933013,56.61462979482606 402.0458563933013,56.31132917038359 402.48393588729965,56.31132917038359 C 402.8229713217854,56.31132917038359 402.8229713217854,56.00802854594113 403.1620067562711,56.00802854594113 C 403.56961115503486,56.00802854594113 403.56961115503486,55.68688670829617 403.9772155537986,55.68688670829617 C 404.44957952993605,55.68688670829617 404.44957952993605,54.87511150758252 404.92194350607343,54.87511150758252 C 405.35240422626316,54.87511150758252 405.35240422626316,54.2506690454951 405.78286494645295,54.2506690454951 C 406.21713505354705,54.2506690454951 406.21713505354705,53.87600356824264 406.6514051606411,53.87600356824264 C 407.07043772011787,53.87600356824264 407.07043772011787,53.465655664585185 407.48947027959457,53.465655664585185 C 407.9313591604973,53.465655664585185 407.9313591604973,53.18019625334523 408.37324804140013,53.18019625334523 C 408.9903687199022,53.18019625334523 408.9903687199022,52.94826048171275 409.60748939840437,52.94826048171275 C 410.3579386185582,52.94826048171275 410.3579386185582,52.5914362176628 411.108387838712,52.5914362176628 C 411.7483648386401,52.5914362176628 411.7483648386401,52.1721677074041 412.38834183856824,52.1721677074041 C 412.807374398045,52.1721677074041 412.807374398045,51.975914362176624 413.22640695752176,51.975914362176624 C 413.6073456479552,51.975914362176624 413.6073456479552,51.833184656556654 413.98828433838855,51.833184656556654 C 414.41493567167396,51.833184656556654 414.41493567167396,51.708296164139156 414.84158700495937,51.708296164139156 C 415.28728527276644,51.708296164139156 415.28728527276644,51.610169491525426 415.73298354057357,51.610169491525426 C 416.18630058218935,51.610169491525426 416.18630058218935,51.49420160570919 416.63961762380507,51.49420160570919 C 417.1005534392295,51.49420160570919 417.1005534392295,51.06601248884924 417.5614892546539,51.06601248884924 C 417.9919499748437,51.06601248884924 417.9919499748437,50.914362176628 418.4224106950334,50.914362176628 C 418.88334651045784,50.914362176628 418.88334651045784,50.6199821587868 419.34428232588226,50.6199821587868 C 419.9880687127147,50.6199821587868 419.9880687127147,50.45049063336306 420.6318550995472,50.45049063336306 C 421.44325451017033,50.45049063336306 421.44325451017033,50.227475468331846 422.2546539207935,50.227475468331846 C 422.9251060159563,50.227475468331846 422.9251060159563,49.95985727029438 423.59555811111915,49.95985727029438 C 424.0145906705959,49.95985727029438 424.0145906705959,49.888492417484386 424.4336232300726,49.888492417484386 C 424.72694602170634,49.888492417484386 424.72694602170634,49.799286351471906 425.02026881334007,49.799286351471906 C 425.4278732121038,49.799286351471906 425.4278732121038,49.745762711864415 425.83547761086754,49.745762711864415 C 426.2773664917703,49.745762711864415 426.2773664917703,49.68331846565566 426.71925537267305,49.68331846565566 C 427.1649536404801,49.68331846565566 427.1649536404801,49.47814451382693 427.6106519082872,49.47814451382693 C 428.08301588442464,49.47814451382693 428.08301588442464,49.37109723461195 428.555379860562,49.37109723461195 C 428.9744124200388,49.37109723461195 428.9744124200388,49.29973238180196 429.39344497951555,49.29973238180196 C 429.8619995687486,49.29973238180196 429.8619995687486,49.20160570918823 430.33055415798174,49.20160570918823 C 431.0619564436139,49.20160570918823 431.0619564436139,49.157002676181975 431.79335872924605,49.157002676181975 C 432.6199956874865,49.157002676181975 432.6199956874865,49.023193577163255 433.446632645727,49.023193577163255 C 434.1627973837418,49.023193577163255 434.1627973837418,48.92506690454951 434.8789621217566,48.92506690454951 C 435.6827427585711,48.92506690454951 435.6827427585711,48.84478144513827 436.48652339538563,48.84478144513827 C 437.3093509667218,48.84478144513827 437.3093509667218,48.62176628010704 438.13217853805793,48.62176628010704 C 438.49026090706536,48.62176628010704 438.49026090706536,48.55040142729705 438.84834327607274,48.55040142729705 C 439.3245166391145,48.55040142729705 439.3245166391145,48.43443354148083 439.8006900021563,48.43443354148083 C 440.1702005318767,48.43443354148083 440.1702005318767,48.32738626226583 440.5397110615971,48.32738626226583 C 440.93969668655217,48.32738626226583 440.93969668655217,48.23818019625334 441.33968231150726,48.23818019625334 C 441.952993603105,48.23818019625334 441.952993603105,48.0865298840321 442.5663048947028,48.0865298840321 C 443.37008553151725,48.0865298840321 443.37008553151725,48.015165031222125 444.17386616833176,48.015165031222125 C 444.8938402932509,48.015165031222125 444.8938402932509,47.90811775200713 445.61381441817,47.90811775200713 C 446.4328326026019,47.90811775200713 446.4328326026019,47.827832292595886 447.25185078703373,47.827832292595886 C 447.60231438223246,47.827832292595886 447.60231438223246,47.694023193577166 447.9527779774312,47.694023193577166 C 448.4670452095163,47.694023193577166 448.4670452095163,47.31935771632472 448.98131244160135,47.31935771632472 C 449.3546323582261,47.31935771632472 449.3546323582261,46.87332738626226 449.72795227485085,46.87332738626226 C 450.1698411557536,46.87332738626226 450.1698411557536,46.46297948260481 450.61173003665635,46.46297948260481 C 451.0498095306548,46.46297948260481 451.0498095306548,46.03479036574487 451.4878890246532,46.03479036574487 C 451.89549342341695,46.03479036574487 451.89549342341695,45.829616413916156 452.3030978221807,45.829616413916156 C 452.9164091137785,45.829616413916156 452.9164091137785,45.55307760927744 453.5297204053763,45.55307760927744 C 454.33731042909506,45.55307760927744 454.33731042909506,45.27653880463872 455.1449004528139,45.27653880463872 C 455.8686839646374,45.27653880463872 455.8686839646374,45.06244424620874 456.59246747646085,45.06244424620874 C 457.4076762739884,45.06244424620874 457.4076762739884,44.812667261373775 458.22288507151586,44.812667261373775 C 458.5962049881406,44.812667261373775 458.5962049881406,44.66993755575379 458.96952490476536,44.66993755575379 C 459.44950765471145,44.66993755575379 459.44950765471145,44.482604817127566 459.92949040465754,44.482604817127566 C 460.3142384819953,44.482604817127566 460.3142384819953,44.33987511150758 460.698986559333,44.33987511150758 C 461.11420973190536,44.33987511150758 461.11420973190536,44.197145405887596 461.5294329044778,44.197145405887596 C 461.9827499460936,44.197145405887596 461.9827499460936,44.000892060660135 462.4360669877093,44.000892060660135 C 462.88557464242075,44.000892060660135 462.88557464242075,43.92952720785014 463.3350822971322,43.92952720785014 C 463.9902968446777,43.92952720785014 463.9902968446777,43.84032114183765 464.6455113922231,43.84032114183765 C 465.44929202903757,43.84032114183765 465.44929202903757,43.751115075825155 466.2530726658521,43.751115075825155 C 466.9159059872062,43.751115075825155 466.9159059872062,43.59054415700268 467.57873930856033,43.59054415700268 C 468.40156687989645,43.59054415700268 468.40156687989645,43.41213202497771 469.2243944512326,43.41213202497771 C 469.593904980953,43.41213202497771 469.593904980953,43.278322925958975 469.9634155106734,43.278322925958975 C 470.5157766118019,43.278322925958975 470.5157766118019,43.082069580731485 471.06813771293037,43.082069580731485 C 471.3766980521814,43.082069580731485 471.3766980521814,42.9393398751115 471.68525839143246,42.9393398751115 C 472.1004815640049,42.9393398751115 472.1004815640049,42.85905441570026 472.5157047365773,42.85905441570026 C 472.9499748436714,42.85905441570026 472.9499748436714,42.752007136485275 473.38424495076544,42.752007136485275 C 473.82232444476386,42.752007136485275 473.82232444476386,42.662801070472796 474.2604039387623,42.662801070472796 C 474.88133400416876,42.662801070472796 474.88133400416876,42.5735950044603 475.50226406957523,42.5735950044603 C 476.30223531948536,42.5735950044603 476.30223531948536,42.43978590544157 477.1022065693955,42.43978590544157 C 477.81075253360166,42.43978590544157 477.81075253360166,42.323818019625335 478.51929849780777,42.323818019625335 C 479.3002228131963,42.323818019625335 479.3002228131963,42.19892952720785 480.0811471285848,42.19892952720785 C 480.4811327535399,42.19892952720785 480.4811327535399,42.14540588760036 480.88111837849493,42.14540588760036 C 481.3572917415367,42.14540588760036 481.3572917415367,42.06512042818912 481.83346510457847,42.06512042818912 C 482.29059153309856,42.06512042818912 482.29059153309856,42.02051739518288 482.7477179616186,42.02051739518288 C 483.16675052109537,42.02051739518288 483.16675052109537,41.95807314897412 483.5857830805721,41.95807314897412 C 483.9819593186229,41.95807314897412 483.9819593186229,41.86886708296164 484.3781355566736,41.86886708296164 C 484.82764321138507,41.86886708296164 484.82764321138507,41.8064228367529 485.27715086609646,41.8064228367529 C 485.8752246100769,41.8064228367529 485.8752246100769,41.72613737734166 486.47329835405736,41.72613737734166 C 487.2580320563502,41.72613737734166 487.2580320563502,41.63693131132918 488.042765758643,41.63693131132918 C 488.7055990799971,41.63693131132918 488.7055990799971,41.556645851917935 489.36843240135124,41.556645851917935 C 489.74175231797597,41.556645851917935 489.74175231797597,41.44067796610169 490.11507223460075,41.44067796610169 C 490.4731546036081,41.44067796610169 490.4731546036081,41.33363068688671 490.83123697261556,41.33363068688671 C 491.2731258535183,41.33363068688671 491.2731258535183,41.315789473684205 491.715014734421,41.315789473684205 C 492.16071300222814,41.315789473684205 492.16071300222814,41.253345227475464 492.6064112700352,41.253345227475464 C 493.0254438295119,41.253345227475464 493.0254438295119,41.14629794826048 493.4444763889887,41.14629794826048 C 493.92064975203044,41.14629794826048 493.92064975203044,41.030330062444236 494.3968231150722,41.030330062444236 C 494.81585567454897,41.030330062444236 494.81585567454897,40.932203389830505 495.23488823402573,40.932203389830505 C 495.7034428232588,40.932203389830505 495.7034428232588,40.842997323818025 496.1719974124919,40.842997323818025 C 496.86149644217636,40.842997323818025 496.86149644217636,40.79839429081177 497.5509954718608,40.79839429081177 C 498.37763243010136,40.79839429081177 498.37763243010136,40.70918822479929 499.20426938834186,40.70918822479929 C 499.832818227557,40.70918822479929 499.832818227557,40.6378233719893 500.46136706677214,40.6378233719893 C 501.1775318047869,40.6378233719893 501.1775318047869,40.43264942016057 501.8936965428017,40.43264942016057 C 502.2822540070438,40.43264942016057 502.2822540070438,40.37020517395183 502.67081147128584,40.37020517395183 C 503.13174728671027,40.37020517395183 503.13174728671027,40.33452274754683 503.5926831021347,40.33452274754683 C 504.0079062747071,40.33452274754683 504.0079062747071,40.28099910793934 504.4231294472795,40.28099910793934 C 504.91454035793856,40.28099910793934 504.91454035793856,40.209634255129345 505.4059512685977,40.209634255129345 C 505.82879321497876,40.209634255129345 505.82879321497876,40.120428189116865 506.2516351613599,40.120428189116865 C 506.72399913749734,40.120428189116865 506.72399913749734,40.07582515611061 507.19636311363473,40.07582515611061 C 507.8858621433192,40.07582515611061 507.8858621433192,40.03122212310437 508.57536117300367,40.03122212310437 C 509.44390138719183,40.03122212310437 509.44390138719183,39.95093666369313 510.31244160138,39.95093666369313 C 511.1809818155682,39.95093666369313 511.1809818155682,39.8528099910794 512.0495220297564,39.8528099910794 C 512.8228275713362,39.8528099910794 512.8228275713362,39.71900089206065 513.596133112916,39.71900089206065 C 514.3503917199741,39.71900089206065 514.3503917199741,39.69223907225691 515.1046503270322,39.69223907225691 C 515.797958743621,39.69223907225691 515.797958743621,39.57627118644068 516.4912671602099,39.57627118644068 C 516.9179184934953,39.57627118644068 516.9179184934953,39.540588760035675 517.3445698267807,39.540588760035675 C 517.7597929993531,39.540588760035675 517.7597929993531,39.504906333630686 518.1750161719256,39.504906333630686 C 518.7654711420973,39.504906333630686 518.7654711420973,39.415700267618206 519.3559261122691,39.415700267618206 C 520.1482785883707,39.415700267618206 520.1482785883707,39.37109723461195 520.9406310644721,39.37109723461195 C 521.6986990584346,39.37109723461195 521.6986990584346,39.32649420160571 522.456767052397,39.32649420160571 C 523.2872133975419,39.32649420160571 523.2872133975419,39.26404995539697 524.1176597426868,39.26404995539697 C 524.4909796593115,39.26404995539697 524.4909796593115,39.23728813559322 524.8642995759362,39.23728813559322 C 526.5785236828865,39.23728813559322 526.5785236828865,39.157002676181975 528.2927477898368,39.157002676181975 C 528.7193991231222,39.157002676181975 528.7193991231222,39.04103479036574 529.1460504564077,39.04103479036574 C 529.7365054265795,39.04103479036574 529.7365054265795,38.978590544157 530.3269603967512,38.978590544157 C 531.1383598073744,38.978590544157 531.1383598073744,38.86262265834077 531.9497592179976,38.86262265834077 C 532.70782721196,38.86262265834077 532.70782721196,38.746654772524536 533.4658952059225,38.746654772524536 C 534.2887227772587,38.746654772524536 534.2887227772587,38.69313113291703 535.1115503485948,38.69313113291703 C 535.5305829080716,38.69313113291703 535.5305829080716,38.63960749330954 535.9496154675483,38.63960749330954 C 536.4105512829727,38.63960749330954 536.4105512829727,38.56824264049956 536.8714870983972,38.56824264049956 C 537.1724286638396,38.56824264049956 537.1724286638396,38.407671721677076 537.473370229282,38.407671721677076 C 537.8962121756631,38.407671721677076 537.8962121756631,38.291703835860844 538.3190541220441,38.291703835860844 C 538.7304679077122,38.291703835860844 538.7304679077122,38.1757359500446 539.1418816933804,38.1757359500446 C 539.6180550564221,38.1757359500446 539.6180550564221,38.03300624442463 540.0942284194639,38.03300624442463 C 540.6694458420183,38.03300624442463 540.6694458420183,37.89027653880464 541.2446632645726,37.89027653880464 C 542.0370157406742,37.89027653880464 542.0370157406742,37.667261373773414 542.8293682167757,37.667261373773414 C 543.5874362107381,37.667261373773414 543.5874362107381,37.54237288135593 544.3455042047007,37.54237288135593 C 545.1835693236542,37.54237288135593 545.1835693236542,37.39072256913471 546.0216344426076,37.39072256913471 C 546.3987637461366,37.39072256913471 546.3987637461366,37.283675289919714 546.7758930496658,37.283675289919714 C 547.313016603177,37.283675289919714 547.313016603177,37.03389830508475 547.850140156688,37.03389830508475 C 548.1891755911737,37.03389830508475 548.1891755911737,36.953612845673504 548.5282110256594,36.953612845673504 C 548.9586717458492,36.953612845673504 548.9586717458492,36.81088314005352 549.389132466039,36.81088314005352 C 549.7967368648027,36.81088314005352 549.7967368648027,36.60570918822479 550.2043412635664,36.60570918822479 C 550.6652770789908,36.60570918822479 550.6652770789908,36.48082069580731 551.1262128944153,36.48082069580731 C 551.773808668152,36.48082069580731 551.773808668152,36.33809099018734 552.4214044418889,36.33809099018734 C 553.2518507870336,36.33809099018734 553.2518507870336,36.1685994647636 554.0822971321785,36.1685994647636 C 554.7984618701933,36.1685994647636 554.7984618701933,36.02586975914362 555.5146266082081,36.02586975914362 C 556.2803133759793,36.02586975914362 556.2803133759793,35.874219446922396 557.0460001437505,35.874219446922396 C 557.4155106734709,35.874219446922396 557.4155106734709,35.802854594112404 557.7850212031913,35.802854594112404 C 558.3335729174154,35.802854594112404 558.3335729174154,35.68688670829617 558.8821246316395,35.68688670829617 C 559.2021131316035,35.68688670829617 559.2021131316035,35.58876003568243 559.5221016315676,35.58876003568243 C 559.93732480414,35.58876003568243 559.93732480414,35.47279214986618 560.3525479767125,35.47279214986618 C 560.7563429885719,35.47279214986618 560.7563429885719,35.33006244424621 561.1601380004313,35.33006244424621 C 561.6096456551427,35.33006244424621 561.6096456551427,35.249776984834966 562.0591533098541,35.249776984834966 C 562.7334147919212,35.249776984834966 562.7334147919212,35.11596788581623 563.4076762739884,35.11596788581623 C 564.2038381369941,35.11596788581623 564.2038381369941,35.0 565.0,35.0" class="chart-line animated-line" stroke-width="2.5" stroke-linecap="round" stroke-linejoin="round" />

  <!-- Bright endpoint dot -->
  <circle cx="565.0" cy="35.0" r="4" class="chart-dot dot-pulse" stroke-width="2.5" />
</svg>