<svg width="600" height="160" viewBox="0 0 600 160" xmlns="http://www.w3.org/2000/svg">
  <style>
    .bg { fill: #ffffff; stroke: #e1e4e8; }
    .text-title { fill: #2b3137; font-weight: 600; font-size: 15px; }
    .chart-line { stroke: #0366d6; fill: none; }
    .chart-dot { fill: #ffffff; stroke: #0366d6; }
    .grad-start { stop-color: #0366d6; stop-opacity: 0.4; }
    .grad-end { stop-color: #0366d6; stop-opacity: 0.0; }
    
    @media (prefers-color-scheme: dark) {
      .bg { fill: #0d1117; stroke: #30363d; }
      .text-title { fill: #c9d1d9; }
      .chart-line { stroke: #58a6ff; }
      .chart-dot { fill: #0d1117; stroke: #58a6ff; }
      .grad-start { stop-color: #58a6ff; stop-opacity: 0.3; }
      .grad-end { stop-color: #58a6ff; stop-opacity: 0.0; }
    }
    
    @keyframes pulse {
      0% { r: 4; stroke-width: 2.5; }
      50% { r: 5.5; stroke-width: 4; stroke-opacity: 0.6; }
      100% { r: 4; stroke-width: 2.5; }
    }
    .dot-pulse { animation: pulse 2s infinite; }
    @keyframes draw {
      from { stroke-dashoffset: 1000; }
      to { stroke-dashoffset: 0; }
    }
    .animated-line {
      stroke-dasharray: 1000;
      stroke-dashoffset: 1000;
      animation: draw 1.5s ease-out forwards;
    }
  </style>
  <defs>
    <filter id="shadow2" x="-5%" y="-5%" width="110%" height="110%">
      <feDropShadow dx="0" dy="4" stdDeviation="5" flood-opacity="0.05" />
    </filter>
    <linearGradient id="fillGrad" x1="0" y1="0" x2="0" y2="1">
      <stop offset="0%" class="grad-start"/>
      <stop offset="100%" class="grad-end"/>
    </linearGradient>
  </defs>
  <rect class="bg" width="600" height="160" rx="10" filter="url(#shadow2)" stroke-width="1"/>
  <g font-family="-apple-system,BlinkMacSystemFont,'Segoe UI',Helvetica,Arial,sans-serif">
    <text x="25" y="30" class="text-title">📈 Download Growth (Current: 19.1k)</text>
  </g>

  <!-- Area under the line -->
  <path fill="url(#fillGrad)" d="M 35.0,125.0 C 35.41185170330634,125.0 35.41185170330634,124.80932203389831 35.82370340661269,124.80932203389831 C 37.278469907001224,124.80932203389831 37.278469907001224,124.27814769975787 38.73323640738977,124.27814769975787 C 40.95856415912566,124.27814769975787 40.95856415912566,123.43371670702179 43.183891910861554,123.43371670702179 C 44.6585867194746,123.43371670702179 44.6585867194746,122.9706416464891 46.133281528087636,122.9706416464891 C 46.77763016067982,122.9706416464891 46.77763016067982,122.90254237288136 47.421978793272004,122.90254237288136 C 48.32539543278269,122.90254237288136 48.32539543278269,122.38498789346247 49.22881207229338,122.38498789346247 C 49.79344747198756,122.38498789346247 49.79344747198756,122.13983050847457 50.358082871681745,122.13983050847457 C 51.15521520066177,122.13983050847457 51.15521520066177,121.85381355932203 51.95234752964179,121.85381355932203 C 52.69633770335648,121.85381355932203 52.69633770335648,121.75847457627118 53.44032787707117,121.75847457627118 C 54.23746020605119,121.75847457627118 54.23746020605119,121.62227602905568 55.03459253503121,121.62227602905568 C 56.48271626601158,121.62227602905568 56.48271626601158,121.39073849878935 57.93083999699195,121.39073849878935 C 60.82044468954453,121.39073849878935 60.82044468954453,121.0774818401937 63.71004938209711,121.0774818401937 C 130.6691650164189,121.0774818401937 130.6691650164189,90.39194915254237 197.62828065074072,90.39194915254237 C 199.76060963076227,90.39194915254237 199.76060963076227,90.07869249394673 201.89293861078383,90.07869249394673 C 204.56333191286691,90.07869249394673 204.56333191286691,88.74394673123487 207.23372521495,88.74394673123487 C 207.73857568997067,88.74394673123487 207.73857568997067,88.49878934624698 208.24342616499135,88.49878934624698 C 209.39926804201238,88.49878934624698 209.39926804201238,88.17191283292979 210.5551099190334,88.17191283292979 C 212.76715213195297,88.17191283292979 212.76715213195297,87.5181598062954 214.97919434487252,87.5181598062954 C 216.27453437946508,87.5181598062954 216.27453437946508,87.06870460048427 217.5698744140576,87.06870460048427 C 220.30669541022235,87.06870460048427 220.30669541022235,86.38771186440678 223.04351640638708,86.38771186440678 C 223.8672198129998,86.38771186440678 223.8672198129998,86.25151331719128 224.69092321961247,86.25151331719128 C 225.31534354398013,86.25151331719128 225.31534354398013,86.12893462469734 225.93976386834782,86.12893462469734 C 226.57746973153183,86.12893462469734 226.57746973153183,86.04721549636804 227.21517559471584,86.04721549636804 C 228.46401624345123,86.04721549636804 228.46401624345123,85.82929782082324 229.7128568921866,85.82929782082324 C 231.8717569498408,85.82929782082324 231.8717569498408,85.5432808716707 234.03065700749502,85.5432808716707 C 235.2794976562304,85.5432808716707 235.2794976562304,85.29812348668281 236.52833830496579,85.29812348668281 C 237.8834632642318,85.29812348668281 237.8834632642318,85.05296610169492 239.23858822349786,85.05296610169492 C 240.71992580151908,85.05296610169492 240.71992580151908,84.27663438256658 242.20126337954028,84.27663438256658 C 242.85225478154064,84.27663438256658 242.85225478154064,83.9769975786925 243.503246183541,83.9769975786925 C 244.2405935878475,83.9769975786925 244.2405935878475,83.58202179176756 244.977940992154,83.58202179176756 C 245.6621462411952,83.58202179176756 245.6621462411952,83.26876513317191 246.34635149023637,83.26876513317191 C 247.59519213897175,83.26876513317191 247.59519213897175,82.08383777239709 248.84403278770714,82.08383777239709 C 251.00957561476952,82.08383777239709 251.00957561476952,80.39497578692493 253.1751184418319,80.39497578692493 C 254.37081693530195,80.39497578692493 254.37081693530195,79.85018159806296 255.56651542877196,79.85018159806296 C 256.9482114656707,79.85018159806296 256.9482114656707,79.16918886198548 258.3299075025694,79.16918886198548 C 259.9308149299376,79.16918886198548 259.9308149299376,78.42009685230025 261.5317223573058,78.42009685230025 C 262.853633469531,78.42009685230025 262.853633469531,78.06598062953995 264.1755445817562,78.06598062953995 C 264.87967813902185,78.06598062953995 264.87967813902185,77.91616222760291 265.58381169628757,77.91616222760291 C 266.78615295916575,77.91616222760291 266.78615295916575,77.64376513317191 267.988494222044,77.64376513317191 C 270.2005364349635,77.64376513317191 270.2005364349635,77.11259079903148 272.4125786478831,77.11259079903148 C 273.6215626801694,77.11259079903148 273.6215626801694,76.99001210653753 274.83054671245577,76.99001210653753 C 276.1391722858647,76.99001210653753 276.1391722858647,76.75847457627118 277.4477978592736,76.75847457627118 C 278.35785726819245,76.75847457627118 278.35785726819245,76.49969733656174 279.26791667711126,76.49969733656174 C 280.53004286466296,76.49969733656174 280.53004286466296,76.24092009685229 281.79216905221466,76.24092009685229 C 282.4896598400722,76.24092009685229 282.4896598400722,76.1319612590799 283.1871506279297,76.1319612590799 C 283.89128418519545,76.1319612590799 283.89128418519545,76.03662227602905 284.5954177424611,76.03662227602905 C 285.824330082972,76.03662227602905 285.824330082972,75.87318401937046 287.0532424234828,75.87318401937046 C 288.933146165994,75.87318401937046 288.933146165994,75.79146489104116 290.81304990850526,75.79146489104116 C 292.07517609605696,75.79146489104116 292.07517609605696,75.61440677966101 293.33730228360866,75.61440677966101 C 293.8886521444865,75.61440677966101 293.8886521444865,75.57354721549638 294.44000200536436,75.57354721549638 C 295.1507783320382,75.57354721549638 295.1507783320382,75.46458837772397 295.86155465871207,75.46458837772397 C 296.6719725265084,75.46458837772397 296.6719725265084,75.35562953995156 297.4823903943048,75.35562953995156 C 298.19316672097864,75.35562953995156 298.19316672097864,75.21943099273608 298.9039430476525,75.21943099273608 C 299.74757476248965,75.21943099273608 299.74757476248965,75.13771186440678 300.5912064773268,75.13771186440678 C 301.30198280400066,75.13771186440678 301.30198280400066,74.647397094431 302.01275913067457,74.647397094431 C 302.8364625372873,74.647397094431 302.8364625372873,74.1570823244552 303.6601659439,74.1570823244552 C 304.9953625949415,74.1570823244552 304.9953625949415,73.65314769975788 306.330559245983,73.65314769975788 C 308.5160303812699,73.65314769975788 308.5160303812699,72.6997578692494 310.7015015165568,72.6997578692494 C 311.744416313639,72.6997578692494 311.744416313639,72.25030266343826 312.7873311107212,72.25030266343826 C 313.9298874489259,72.25030266343826 313.9298874489259,71.75998789346247 315.07244378713057,71.75998789346247 C 315.85629057729426,71.75998789346247 315.85629057729426,71.44673123486683 316.64013736745795,71.44673123486683 C 317.3509136941318,71.44673123486683 317.3509136941318,71.14709443099272 318.06169002080566,71.14709443099272 C 318.8853934274183,71.14709443099272 318.8853934274183,70.72487893462468 319.709096834031,70.72487893462468 C 320.4398014689294,70.72487893462468 320.4398014689294,69.94854721549638 321.17050610382773,69.94854721549638 C 321.98092397162407,69.94854721549638 321.98092397162407,69.03601694915255 322.7913418394204,69.03601694915255 C 324.12653849046194,69.03601694915255 324.12653849046194,68.15072639225181 325.46173514150354,68.15072639225181 C 328.0856290577294,68.15072639225181 328.0856290577294,66.69340193704602 330.7095229739553,66.69340193704602 C 332.7621387210788,66.69340193704602 332.7621387210788,65.69915254237287 334.8147544682024,65.69915254237287 C 335.96395357581525,65.69915254237287 335.96395357581525,64.99092009685229 337.11315268342815,64.99092009685229 C 338.24242348281655,64.99092009685229 338.24242348281655,64.56870460048427 339.3716942822049,64.56870460048427 C 340.00275737598076,64.56870460048427 340.00275737598076,64.33716707021792 340.63382046975664,64.33716707021792 C 341.23166971649164,64.33716707021792 341.23166971649164,64.26906779661016 341.82951896322663,64.26906779661016 C 343.1780011530845,64.26906779661016 343.1780011530845,63.846852300242126 344.52648334294236,63.846852300242126 C 346.73852555586194,63.846852300242126 346.73852555586194,63.37015738498789 348.9505677687815,63.37015738498789 C 350.18612287870053,63.37015738498789 350.18612287870053,62.9070823244552 351.42167798861954,62.9070823244552 C 352.6505903291304,62.9070823244552 352.6505903291304,62.55296610169491 353.8795026696413,62.55296610169491 C 354.822775925601,62.55296610169491 354.822775925601,62.13075060532688 355.7660491815607,62.13075060532688 C 357.0613892161532,62.13075060532688 357.0613892161532,61.76301452784504 358.35672925074573,61.76301452784504 C 359.1007194244604,61.76301452784504 359.1007194244604,61.61319612590799 359.84470959817514,61.61319612590799 C 360.5156293084,61.61319612590799 360.5156293084,61.50423728813559 361.1865490186248,61.50423728813559 C 362.45531797558465,61.50423728813559 362.45531797558465,61.36803874092009 363.72408693254454,61.36803874092009 C 366.0357706865866,61.36803874092009 366.0357706865866,60.89134382566586 368.3474544406287,60.89134382566586 C 370.1077883337929,60.89134382566586 370.1077883337929,60.53722760290556 371.8681222269571,60.53722760290556 C 373.3826736520191,60.53722760290556 373.3826736520191,60.27845036319613 374.89722507708115,60.27845036319613 C 376.17927957285735,60.27845036319613 376.17927957285735,60.01967312348668 377.4613340686336,60.01967312348668 C 378.17875316471566,60.01967312348668 378.17875316471566,59.91071428571429 378.89617226079764,59.91071428571429 C 379.5936630486551,59.91071428571429 379.5936630486551,59.76089588377724 380.29115383651265,59.76089588377724 C 381.5200661770235,59.76089588377724 381.5200661770235,59.556598062953995 382.7489785175344,59.556598062953995 C 384.70195272353544,59.556598062953995 384.70195272353544,59.35230024213075 386.6549269295365,59.35230024213075 C 388.02998019702704,59.35230024213075 388.02998019702704,59.16162227602905 389.4050334645176,59.16162227602905 C 390.6007319579876,59.16162227602905 390.6007319579876,58.83474576271186 391.79643045145764,58.83474576271186 C 392.806131401499,58.83474576271186 392.806131401499,58.68492736077482 393.81583235154034,58.68492736077482 C 394.5332514476224,58.68492736077482 394.5332514476224,58.57596852300243 395.2506705437044,58.57596852300243 C 395.78209209635776,58.57596852300243 395.78209209635776,58.467009685230025 396.3135136490111,58.467009685230025 C 397.01100443686863,58.467009685230025 397.01100443686863,58.41253026634382 397.70849522472616,58.41253026634382 C 398.5321986313388,58.41253026634382 398.5321986313388,58.289951573849876 399.3559020379515,58.289951573849876 C 400.51174391497256,58.289951573849876 400.51174391497256,57.70429782082324 401.6675857919936,57.70429782082324 C 403.2087082946883,57.70429782082324 403.2087082946883,56.94158595641646 404.74983079738297,56.94158595641646 C 405.9721003684857,56.94158595641646 405.9721003684857,56.38317191283292 407.1943699395884,56.38317191283292 C 408.48306720477274,56.38317191283292 408.48306720477274,55.674939467312356 409.77176446995713,55.674939467312356 C 410.602110645978,55.674939467312356 410.602110645978,55.26634382566586 411.43245682199887,55.26634382566586 C 412.66801193191793,55.26634382566586 412.66801193191793,54.72154963680387 413.90356704183694,54.72154963680387 C 414.6276289073271,54.72154963680387 414.6276289073271,54.51725181598063 415.3516907728173,54.51725181598063 C 416.09568094653196,54.51725181598063 416.09568094653196,54.38105326876513 416.8396711202467,54.38105326876513 C 417.650088988043,54.38105326876513 417.650088988043,53.781779661016955 418.46050685583936,53.781779661016955 C 419.6229915022685,53.781779661016955 419.6229915022685,53.100786924939456 420.78547614869774,53.100786924939456 C 422.2933848043516,53.100786924939456 422.2933848043516,52.310835351089594 423.8012934600055,52.310835351089594 C 424.9039931817612,52.310835351089594 424.9039931817612,51.83414043583535 426.0066929035169,51.83414043583535 C 427.1691775499461,51.83414043583535 427.1691775499461,51.38468523002422 428.3316621963753,51.38468523002422 C 428.995939137192,51.38468523002422 428.995939137192,51.194007263922515 429.6602160780087,51.194007263922515 C 430.4639911763969,51.194007263922515 430.4639911763969,50.621973365617436 431.26776627478506,50.621973365617436 C 432.02504198731606,50.621973365617436 432.02504198731606,50.22699757869249 432.7823176998471,50.22699757869249 C 433.59273556764344,50.22699757869249 433.59273556764344,49.83202179176756 434.4031534354398,49.83202179176756 C 435.12721530092995,49.83202179176756 435.12721530092995,49.60048426150121 435.8512771664202,49.60048426150121 C 436.6683378036247,49.60048426150121 436.6683378036247,49.437046004842614 437.4853984408292,49.437046004842614 C 438.7408818589728,49.437046004842614 438.7408818589728,49.110169491525426 439.9963652771163,49.110169491525426 C 441.5906299350763,49.110169491525426 441.5906299350763,48.76967312348668 443.1848945930364,48.76967312348668 C 444.2743087759758,48.76967312348668 444.2743087759758,48.442796610169495 445.3637229589151,48.442796610169495 C 446.4531371418545,48.442796610169495 446.4531371418545,48.197639225181604 447.54255132479386,48.197639225181604 C 448.2134710350187,48.197639225181604 448.2134710350187,48.075060532687644 448.88439074524354,48.075060532687644 C 449.68816584363174,48.075060532687644 449.68816584363174,47.89800242130751 450.4919409420199,47.89800242130751 C 451.2160028075101,47.89800242130751 451.2160028075101,47.72094430992736 451.9400646730003,47.72094430992736 C 452.7704108490211,47.72094430992736 452.7704108490211,47.503026634382564 453.60075702504196,47.503026634382564 C 454.3048905823077,47.503026634382564 454.3048905823077,47.42130750605327 455.0090241395734,47.42130750605327 C 455.83937031559424,47.42130750605327 455.83937031559424,47.23062953995158 456.6697164916151,47.23062953995158 C 457.9451282179831,47.23062953995158 457.9451282179831,46.985472154963674 459.2205399443512,46.985472154963674 C 461.65843631714836,46.985472154963674 461.65843631714836,46.63135593220339 464.0963326899456,46.63135593220339 C 466.27516105582436,46.63135593220339 466.27516105582436,46.1682808716707 468.45398942170306,46.1682808716707 C 469.72275837866295,46.1682808716707 469.72275837866295,46.00484261501211 470.99152733562283,46.00484261501211 C 472.08758428797034,46.00484261501211 472.08758428797034,45.88226392251816 473.18364124031785,45.88226392251816 C 473.8944175669917,45.88226392251816 473.8944175669917,45.82778450363196 474.60519389366556,45.82778450363196 C 475.24289975684957,45.82778450363196 475.24289975684957,45.77330508474576 475.8806056200336,45.77330508474576 C 477.08294688291176,45.77330508474576 477.08294688291176,45.67796610169492 478.28528814579,45.67796610169492 C 479.9127666507909,45.67796610169492 479.9127666507909,45.514527845036326 481.54024515579175,45.514527845036326 C 483.4135061288948,45.514527845036326 483.4135061288948,45.323849878934624 485.28676710199784,45.323849878934624 C 486.61532098363125,45.323849878934624 486.61532098363125,45.13317191283292 487.9438748652646,45.13317191283292 C 489.45178352091847,45.13317191283292 489.45178352091847,44.91525423728814 490.95969217657233,44.91525423728814 C 491.6771112726543,44.91525423728814 491.6771112726543,44.79267554479418 492.39453036873635,44.79267554479418 C 493.6699420951044,44.79267554479418 493.6699420951044,44.6837167070218 494.94535382147245,44.6837167070218 C 495.98162584914644,44.6837167070218 495.98162584914644,44.60199757869249 497.0178978768205,44.60199757869249 C 498.4195222219437,44.60199757869249 498.4195222219437,44.52027845036319 499.8211465670669,44.52027845036319 C 501.06998721580226,44.52027845036319 501.06998721580226,44.45217917675545 502.31882786453764,44.45217917675545 C 503.7470232872935,44.45217917675545 503.7470232872935,44.31598062953995 505.17521871004936,44.31598062953995 C 505.8793522673151,44.31598062953995 505.8793522673151,44.20702179176756 506.58348582458075,44.20702179176756 C 507.5799012358058,44.20702179176756 507.5799012358058,44.01634382566586 508.5763166470308,44.01634382566586 C 509.140952046725,44.01634382566586 509.140952046725,43.961864406779654 509.70558744641914,43.961864406779654 C 510.38979269546036,43.961864406779654 510.38979269546036,43.85290556900726 511.07399794450157,43.85290556900726 C 511.8047025793999,43.85290556900726 511.8047025793999,43.78480629539952 512.5354072142982,43.78480629539952 C 513.3325395432782,43.78480629539952 513.3325395432782,43.74394673123487 514.1296718722583,43.74394673123487 C 515.2855137492793,43.74394673123487 515.2855137492793,43.70308716707022 516.4413556263004,43.70308716707022 C 518.0688341313012,43.70308716707022 518.0688341313012,43.56688861985472 519.6963126363021,43.56688861985472 C 521.0514375955681,43.56688861985472 521.0514375955681,43.498789346246966 522.4065625548342,43.498789346246966 C 523.6487604341614,43.498789346246966 523.6487604341614,43.389830508474574 524.8909583134886,43.389830508474574 C 526.4652946632241,43.389830508474574 526.4652946632241,43.17191283292978 528.0396310129597,43.17191283292978 C 529.2220439676134,43.17191283292978 529.2220439676134,43.04933414043583 530.4044569222671,43.04933414043583 C 531.1418043265735,43.04933414043583 531.1418043265735,42.74969733656174 531.87915173088,42.74969733656174 C 532.6164991351866,42.74969733656174 532.6164991351866,42.12318401937047 533.3538465394931,42.12318401937047 C 534.4565462612488,42.12318401937047 534.4565462612488,41.67372881355932 535.5592459830045,41.67372881355932 C 537.1867244880054,41.67372881355932 537.1867244880054,40.77481840193704 538.8142029930063,40.77481840193704 C 540.0497581029254,40.77481840193704 540.0497581029254,40.28450363196126 541.2853132128444,40.28450363196126 C 542.6138670944778,40.28450363196126 542.6138670944778,39.73970944309927 543.9424209761112,39.73970944309927 C 545.4968290176222,39.73970944309927 545.4968290176222,39.08595641646488 547.0512370591332,39.08595641646488 C 548.2535783220114,39.08595641646488 548.2535783220114,38.663740920096856 549.4559195848896,38.663740920096856 C 550.1534103727471,38.663740920096856 550.1534103727471,38.44582324455206 550.8509011606046,38.44582324455206 C 551.581605795503,38.44582324455206 551.581605795503,38.30962469733656 552.3123104304013,38.30962469733656 C 553.3618679968918,38.30962469733656 553.3618679968918,37.62863196125909 554.4114255633821,37.62863196125909 C 555.7798360614645,37.62863196125909 555.7798360614645,36.8931598062954 557.1482465595468,36.8931598062954 C 558.1978041260372,36.8931598062954 558.1978041260372,36.389225181598064 559.2473616925275,36.389225181598064 C 559.9448524803851,36.389225181598064 559.9448524803851,36.062348668280876 560.6423432682426,36.062348668280876 C 561.2866919008347,36.062348668280876 561.2866919008347,35.74909200968523 561.9310405334269,35.74909200968523 C 562.7215300929988,35.74909200968523 562.7215300929988,35.39497578692493 563.5120196525706,35.39497578692493 C 564.2560098262853,35.39497578692493 564.2560098262853,35.0 565.0,35.0 L 565.0,125 L 35.0,125 Z" />

  <!-- Main curve -->
  <path d="M 35.0,125.0 C 35.41185170330634,125.0 35.41185170330634,124.80932203389831 35.82370340661269,124.80932203389831 C 37.278469907001224,124.80932203389831 37.278469907001224,124.27814769975787 38.73323640738977,124.27814769975787 C 40.95856415912566,124.27814769975787 40.95856415912566,123.43371670702179 43.183891910861554,123.43371670702179 C 44.6585867194746,123.43371670702179 44.6585867194746,122.9706416464891 46.133281528087636,122.9706416464891 C 46.77763016067982,122.9706416464891 46.77763016067982,122.90254237288136 47.421978793272004,122.90254237288136 C 48.32539543278269,122.90254237288136 48.32539543278269,122.38498789346247 49.22881207229338,122.38498789346247 C 49.79344747198756,122.38498789346247 49.79344747198756,122.13983050847457 50.358082871681745,122.13983050847457 C 51.15521520066177,122.13983050847457 51.15521520066177,121.85381355932203 51.95234752964179,121.85381355932203 C 52.69633770335648,121.85381355932203 52.69633770335648,121.75847457627118 53.44032787707117,121.75847457627118 C 54.23746020605119,121.75847457627118 54.23746020605119,121.62227602905568 55.03459253503121,121.62227602905568 C 56.48271626601158,121.62227602905568 56.48271626601158,121.39073849878935 57.93083999699195,121.39073849878935 C 60.82044468954453,121.39073849878935 60.82044468954453,121.0774818401937 63.71004938209711,121.0774818401937 C 130.6691650164189,121.0774818401937 130.6691650164189,90.39194915254237 197.62828065074072,90.39194915254237 C 199.76060963076227,90.39194915254237 199.76060963076227,90.07869249394673 201.89293861078383,90.07869249394673 C 204.56333191286691,90.07869249394673 204.56333191286691,88.74394673123487 207.23372521495,88.74394673123487 C 207.73857568997067,88.74394673123487 207.73857568997067,88.49878934624698 208.24342616499135,88.49878934624698 C 209.39926804201238,88.49878934624698 209.39926804201238,88.17191283292979 210.5551099190334,88.17191283292979 C 212.76715213195297,88.17191283292979 212.76715213195297,87.5181598062954 214.97919434487252,87.5181598062954 C 216.27453437946508,87.5181598062954 216.27453437946508,87.06870460048427 217.5698744140576,87.06870460048427 C 220.30669541022235,87.06870460048427 220.30669541022235,86.38771186440678 223.04351640638708,86.38771186440678 C 223.8672198129998,86.38771186440678 223.8672198129998,86.25151331719128 224.69092321961247,86.25151331719128 C 225.31534354398013,86.25151331719128 225.31534354398013,86.12893462469734 225.93976386834782,86.12893462469734 C 226.57746973153183,86.12893462469734 226.57746973153183,86.04721549636804 227.21517559471584,86.04721549636804 C 228.46401624345123,86.04721549636804 228.46401624345123,85.82929782082324 229.7128568921866,85.82929782082324 C 231.8717569498408,85.82929782082324 231.8717569498408,85.5432808716707 234.03065700749502,85.5432808716707 C 235.2794976562304,85.5432808716707 235.2794976562304,85.29812348668281 236.52833830496579,85.29812348668281 C 237.8834632642318,85.29812348668281 237.8834632642318,85.05296610169492 239.23858822349786,85.05296610169492 C 240.71992580151908,85.05296610169492 240.71992580151908,84.27663438256658 242.20126337954028,84.27663438256658 C 242.85225478154064,84.27663438256658 242.85225478154064,83.9769975786925 243.503246183541,83.9769975786925 C 244.2405935878475,83.9769975786925 244.2405935878475,83.58202179176756 244.977940992154,83.58202179176756 C 245.6621462411952,83.58202179176756 245.6621462411952,83.26876513317191 246.34635149023637,83.26876513317191 C 247.59519213897175,83.26876513317191 247.59519213897175,82.08383777239709 248.84403278770714,82.08383777239709 C 251.00957561476952,82.08383777239709 251.00957561476952,80.39497578692493 253.1751184418319,80.39497578692493 C 254.37081693530195,80.39497578692493 254.37081693530195,79.85018159806296 255.56651542877196,79.85018159806296 C 256.9482114656707,79.85018159806296 256.9482114656707,79.16918886198548 258.3299075025694,79.16918886198548 C 259.9308149299376,79.16918886198548 259.9308149299376,78.42009685230025 261.5317223573058,78.42009685230025 C 262.853633469531,78.42009685230025 262.853633469531,78.06598062953995 264.1755445817562,78.06598062953995 C 264.87967813902185,78.06598062953995 264.87967813902185,77.91616222760291 265.58381169628757,77.91616222760291 C 266.78615295916575,77.91616222760291 266.78615295916575,77.64376513317191 267.988494222044,77.64376513317191 C 270.2005364349635,77.64376513317191 270.2005364349635,77.11259079903148 272.4125786478831,77.11259079903148 C 273.6215626801694,77.11259079903148 273.6215626801694,76.99001210653753 274.83054671245577,76.99001210653753 C 276.1391722858647,76.99001210653753 276.1391722858647,76.75847457627118 277.4477978592736,76.75847457627118 C 278.35785726819245,76.75847457627118 278.35785726819245,76.49969733656174 279.26791667711126,76.49969733656174 C 280.53004286466296,76.49969733656174 280.53004286466296,76.24092009685229 281.79216905221466,76.24092009685229 C 282.4896598400722,76.24092009685229 282.4896598400722,76.1319612590799 283.1871506279297,76.1319612590799 C 283.89128418519545,76.1319612590799 283.89128418519545,76.03662227602905 284.5954177424611,76.03662227602905 C 285.824330082972,76.03662227602905 285.824330082972,75.87318401937046 287.0532424234828,75.87318401937046 C 288.933146165994,75.87318401937046 288.933146165994,75.79146489104116 290.81304990850526,75.79146489104116 C 292.07517609605696,75.79146489104116 292.07517609605696,75.61440677966101 293.33730228360866,75.61440677966101 C 293.8886521444865,75.61440677966101 293.8886521444865,75.57354721549638 294.44000200536436,75.57354721549638 C 295.1507783320382,75.57354721549638 295.1507783320382,75.46458837772397 295.86155465871207,75.46458837772397 C 296.6719725265084,75.46458837772397 296.6719725265084,75.35562953995156 297.4823903943048,75.35562953995156 C 298.19316672097864,75.35562953995156 298.19316672097864,75.21943099273608 298.9039430476525,75.21943099273608 C 299.74757476248965,75.21943099273608 299.74757476248965,75.13771186440678 300.5912064773268,75.13771186440678 C 301.30198280400066,75.13771186440678 301.30198280400066,74.647397094431 302.01275913067457,74.647397094431 C 302.8364625372873,74.647397094431 302.8364625372873,74.1570823244552 303.6601659439,74.1570823244552 C 304.9953625949415,74.1570823244552 304.9953625949415,73.65314769975788 306.330559245983,73.65314769975788 C 308.5160303812699,73.65314769975788 308.5160303812699,72.6997578692494 310.7015015165568,72.6997578692494 C 311.744416313639,72.6997578692494 311.744416313639,72.25030266343826 312.7873311107212,72.25030266343826 C 313.9298874489259,72.25030266343826 313.9298874489259,71.75998789346247 315.07244378713057,71.75998789346247 C 315.85629057729426,71.75998789346247 315.85629057729426,71.44673123486683 316.64013736745795,71.44673123486683 C 317.3509136941318,71.44673123486683 317.3509136941318,71.14709443099272 318.06169002080566,71.14709443099272 C 318.8853934274183,71.14709443099272 318.8853934274183,70.72487893462468 319.709096834031,70.72487893462468 C 320.4398014689294,70.72487893462468 320.4398014689294,69.94854721549638 321.17050610382773,69.94854721549638 C 321.98092397162407,69.94854721549638 321.98092397162407,69.03601694915255 322.7913418394204,69.03601694915255 C 324.12653849046194,69.03601694915255 324.12653849046194,68.15072639225181 325.46173514150354,68.15072639225181 C 328.0856290577294,68.15072639225181 328.0856290577294,66.69340193704602 330.7095229739553,66.69340193704602 C 332.7621387210788,66.69340193704602 332.7621387210788,65.69915254237287 334.8147544682024,65.69915254237287 C 335.96395357581525,65.69915254237287 335.96395357581525,64.99092009685229 337.11315268342815,64.99092009685229 C 338.24242348281655,64.99092009685229 338.24242348281655,64.56870460048427 339.3716942822049,64.56870460048427 C 340.00275737598076,64.56870460048427 340.00275737598076,64.33716707021792 340.63382046975664,64.33716707021792 C 341.23166971649164,64.33716707021792 341.23166971649164,64.26906779661016 341.82951896322663,64.26906779661016 C 343.1780011530845,64.26906779661016 343.1780011530845,63.846852300242126 344.52648334294236,63.846852300242126 C 346.73852555586194,63.846852300242126 346.73852555586194,63.37015738498789 348.9505677687815,63.37015738498789 C 350.18612287870053,63.37015738498789 350.18612287870053,62.9070823244552 351.42167798861954,62.9070823244552 C 352.6505903291304,62.9070823244552 352.6505903291304,62.55296610169491 353.8795026696413,62.55296610169491 C 354.822775925601,62.55296610169491 354.822775925601,62.13075060532688 355.7660491815607,62.13075060532688 C 357.0613892161532,62.13075060532688 357.0613892161532,61.76301452784504 358.35672925074573,61.76301452784504 C 359.1007194244604,61.76301452784504 359.1007194244604,61.61319612590799 359.84470959817514,61.61319612590799 C 360.5156293084,61.61319612590799 360.5156293084,61.50423728813559 361.1865490186248,61.50423728813559 C 362.45531797558465,61.50423728813559 362.45531797558465,61.36803874092009 363.72408693254454,61.36803874092009 C 366.0357706865866,61.36803874092009 366.0357706865866,60.89134382566586 368.3474544406287,60.89134382566586 C 370.1077883337929,60.89134382566586 370.1077883337929,60.53722760290556 371.8681222269571,60.53722760290556 C 373.3826736520191,60.53722760290556 373.3826736520191,60.27845036319613 374.89722507708115,60.27845036319613 C 376.17927957285735,60.27845036319613 376.17927957285735,60.01967312348668 377.4613340686336,60.01967312348668 C 378.17875316471566,60.01967312348668 378.17875316471566,59.91071428571429 378.89617226079764,59.91071428571429 C 379.5936630486551,59.91071428571429 379.5936630486551,59.76089588377724 380.29115383651265,59.76089588377724 C 381.5200661770235,59.76089588377724 381.5200661770235,59.556598062953995 382.7489785175344,59.556598062953995 C 384.70195272353544,59.556598062953995 384.70195272353544,59.35230024213075 386.6549269295365,59.35230024213075 C 388.02998019702704,59.35230024213075 388.02998019702704,59.16162227602905 389.4050334645176,59.16162227602905 C 390.6007319579876,59.16162227602905 390.6007319579876,58.83474576271186 391.79643045145764,58.83474576271186 C 392.806131401499,58.83474576271186 392.806131401499,58.68492736077482 393.81583235154034,58.68492736077482 C 394.5332514476224,58.68492736077482 394.5332514476224,58.57596852300243 395.2506705437044,58.57596852300243 C 395.78209209635776,58.57596852300243 395.78209209635776,58.467009685230025 396.3135136490111,58.467009685230025 C 397.01100443686863,58.467009685230025 397.01100443686863,58.41253026634382 397.70849522472616,58.41253026634382 C 398.5321986313388,58.41253026634382 398.5321986313388,58.289951573849876 399.3559020379515,58.289951573849876 C 400.51174391497256,58.289951573849876 400.51174391497256,57.70429782082324 401.6675857919936,57.70429782082324 C 403.2087082946883,57.70429782082324 403.2087082946883,56.94158595641646 404.74983079738297,56.94158595641646 C 405.9721003684857,56.94158595641646 405.9721003684857,56.38317191283292 407.1943699395884,56.38317191283292 C 408.48306720477274,56.38317191283292 408.48306720477274,55.674939467312356 409.77176446995713,55.674939467312356 C 410.602110645978,55.674939467312356 410.602110645978,55.26634382566586 411.43245682199887,55.26634382566586 C 412.66801193191793,55.26634382566586 412.66801193191793,54.72154963680387 413.90356704183694,54.72154963680387 C 414.6276289073271,54.72154963680387 414.6276289073271,54.51725181598063 415.3516907728173,54.51725181598063 C 416.09568094653196,54.51725181598063 416.09568094653196,54.38105326876513 416.8396711202467,54.38105326876513 C 417.650088988043,54.38105326876513 417.650088988043,53.781779661016955 418.46050685583936,53.781779661016955 C 419.6229915022685,53.781779661016955 419.6229915022685,53.100786924939456 420.78547614869774,53.100786924939456 C 422.2933848043516,53.100786924939456 422.2933848043516,52.310835351089594 423.8012934600055,52.310835351089594 C 424.9039931817612,52.310835351089594 424.9039931817612,51.83414043583535 426.0066929035169,51.83414043583535 C 427.1691775499461,51.83414043583535 427.1691775499461,51.38468523002422 428.3316621963753,51.38468523002422 C 428.995939137192,51.38468523002422 428.995939137192,51.194007263922515 429.6602160780087,51.194007263922515 C 430.4639911763969,51.194007263922515 430.4639911763969,50.621973365617436 431.26776627478506,50.621973365617436 C 432.02504198731606,50.621973365617436 432.02504198731606,50.22699757869249 432.7823176998471,50.22699757869249 C 433.59273556764344,50.22699757869249 433.59273556764344,49.83202179176756 434.4031534354398,49.83202179176756 C 435.12721530092995,49.83202179176756 435.12721530092995,49.60048426150121 435.8512771664202,49.60048426150121 C 436.6683378036247,49.60048426150121 436.6683378036247,49.437046004842614 437.4853984408292,49.437046004842614 C 438.7408818589728,49.437046004842614 438.7408818589728,49.110169491525426 439.9963652771163,49.110169491525426 C 441.5906299350763,49.110169491525426 441.5906299350763,48.76967312348668 443.1848945930364,48.76967312348668 C 444.2743087759758,48.76967312348668 444.2743087759758,48.442796610169495 445.3637229589151,48.442796610169495 C 446.4531371418545,48.442796610169495 446.4531371418545,48.197639225181604 447.54255132479386,48.197639225181604 C 448.2134710350187,48.197639225181604 448.2134710350187,48.075060532687644 448.88439074524354,48.075060532687644 C 449.68816584363174,48.075060532687644 449.68816584363174,47.89800242130751 450.4919409420199,47.89800242130751 C 451.2160028075101,47.89800242130751 451.2160028075101,47.72094430992736 451.9400646730003,47.72094430992736 C 452.7704108490211,47.72094430992736 452.7704108490211,47.503026634382564 453.60075702504196,47.503026634382564 C 454.3048905823077,47.503026634382564 454.3048905823077,47.42130750605327 455.0090241395734,47.42130750605327 C 455.83937031559424,47.42130750605327 455.83937031559424,47.23062953995158 456.6697164916151,47.23062953995158 C 457.9451282179831,47.23062953995158 457.9451282179831,46.985472154963674 459.2205399443512,46.985472154963674 C 461.65843631714836,46.985472154963674 461.65843631714836,46.63135593220339 464.0963326899456,46.63135593220339 C 466.27516105582436,46.63135593220339 466.27516105582436,46.1682808716707 468.45398942170306,46.1682808716707 C 469.72275837866295,46.1682808716707 469.72275837866295,46.00484261501211 470.99152733562283,46.00484261501211 C 472.08758428797034,46.00484261501211 472.08758428797034,45.88226392251816 473.18364124031785,45.88226392251816 C 473.8944175669917,45.88226392251816 473.8944175669917,45.82778450363196 474.60519389366556,45.82778450363196 C 475.24289975684957,45.82778450363196 475.24289975684957,45.77330508474576 475.8806056200336,45.77330508474576 C 477.08294688291176,45.77330508474576 477.08294688291176,45.67796610169492 478.28528814579,45.67796610169492 C 479.9127666507909,45.67796610169492 479.9127666507909,45.514527845036326 481.54024515579175,45.514527845036326 C 483.4135061288948,45.514527845036326 483.4135061288948,45.323849878934624 485.28676710199784,45.323849878934624 C 486.61532098363125,45.323849878934624 486.61532098363125,45.13317191283292 487.9438748652646,45.13317191283292 C 489.45178352091847,45.13317191283292 489.45178352091847,44.91525423728814 490.95969217657233,44.91525423728814 C 491.6771112726543,44.91525423728814 491.6771112726543,44.79267554479418 492.39453036873635,44.79267554479418 C 493.6699420951044,44.79267554479418 493.6699420951044,44.6837167070218 494.94535382147245,44.6837167070218 C 495.98162584914644,44.6837167070218 495.98162584914644,44.60199757869249 497.0178978768205,44.60199757869249 C 498.4195222219437,44.60199757869249 498.4195222219437,44.52027845036319 499.8211465670669,44.52027845036319 C 501.06998721580226,44.52027845036319 501.06998721580226,44.45217917675545 502.31882786453764,44.45217917675545 C 503.7470232872935,44.45217917675545 503.7470232872935,44.31598062953995 505.17521871004936,44.31598062953995 C 505.8793522673151,44.31598062953995 505.8793522673151,44.20702179176756 506.58348582458075,44.20702179176756 C 507.5799012358058,44.20702179176756 507.5799012358058,44.01634382566586 508.5763166470308,44.01634382566586 C 509.140952046725,44.01634382566586 509.140952046725,43.961864406779654 509.70558744641914,43.961864406779654 C 510.38979269546036,43.961864406779654 510.38979269546036,43.85290556900726 511.07399794450157,43.85290556900726 C 511.8047025793999,43.85290556900726 511.8047025793999,43.78480629539952 512.5354072142982,43.78480629539952 C 513.3325395432782,43.78480629539952 513.3325395432782,43.74394673123487 514.1296718722583,43.74394673123487 C 515.2855137492793,43.74394673123487 515.2855137492793,43.70308716707022 516.4413556263004,43.70308716707022 C 518.0688341313012,43.70308716707022 518.0688341313012,43.56688861985472 519.6963126363021,43.56688861985472 C 521.0514375955681,43.56688861985472 521.0514375955681,43.498789346246966 522.4065625548342,43.498789346246966 C 523.6487604341614,43.498789346246966 523.6487604341614,43.389830508474574 524.8909583134886,43.389830508474574 C 526.4652946632241,43.389830508474574 526.4652946632241,43.17191283292978 528.0396310129597,43.17191283292978 C 529.2220439676134,43.17191283292978 529.2220439676134,43.04933414043583 530.4044569222671,43.04933414043583 C 531.1418043265735,43.04933414043583 531.1418043265735,42.74969733656174 531.87915173088,42.74969733656174 C 532.6164991351866,42.74969733656174 532.6164991351866,42.12318401937047 533.3538465394931,42.12318401937047 C 534.4565462612488,42.12318401937047 534.4565462612488,41.67372881355932 535.5592459830045,41.67372881355932 C 537.1867244880054,41.67372881355932 537.1867244880054,40.77481840193704 538.8142029930063,40.77481840193704 C 540.0497581029254,40.77481840193704 540.0497581029254,40.28450363196126 541.2853132128444,40.28450363196126 C 542.6138670944778,40.28450363196126 542.6138670944778,39.73970944309927 543.9424209761112,39.73970944309927 C 545.4968290176222,39.73970944309927 545.4968290176222,39.08595641646488 547.0512370591332,39.08595641646488 C 548.2535783220114,39.08595641646488 548.2535783220114,38.663740920096856 549.4559195848896,38.663740920096856 C 550.1534103727471,38.663740920096856 550.1534103727471,38.44582324455206 550.8509011606046,38.44582324455206 C 551.581605795503,38.44582324455206 551.581605795503,38.30962469733656 552.3123104304013,38.30962469733656 C 553.3618679968918,38.30962469733656 553.3618679968918,37.62863196125909 554.4114255633821,37.62863196125909 C 555.7798360614645,37.62863196125909 555.7798360614645,36.8931598062954 557.1482465595468,36.8931598062954 C 558.1978041260372,36.8931598062954 558.1978041260372,36.389225181598064 559.2473616925275,36.389225181598064 C 559.9448524803851,36.389225181598064 559.9448524803851,36.062348668280876 560.6423432682426,36.062348668280876 C 561.2866919008347,36.062348668280876 561.2866919008347,35.74909200968523 561.9310405334269,35.74909200968523 C 562.7215300929988,35.74909200968523 562.7215300929988,35.39497578692493 563.5120196525706,35.39497578692493 C 564.2560098262853,35.39497578692493 564.2560098262853,35.0 565.0,35.0" class="chart-line animated-line" stroke-width="2.5" stroke-linecap="round" stroke-linejoin="round" />

  <!-- Bright endpoint dot -->
  <circle cx="565.0" cy="35.0" r="4" class="chart-dot dot-pulse" stroke-width="2.5" />
</svg>